<?xml version="1.0" encoding="UTF-8"?>
<svg version="1.1" xmlns="http://www.w3.org/2000/svg" width="724" height="527">
<path d="M0 0 C238.92 0 477.84 0 724 0 C724 173.91 724 347.82 724 527 C485.08 527 246.16 527 0 527 C0 353.09 0 179.18 0 0 Z " fill="#020106" transform="translate(0,0)"/>
<path d="M0 0 C35.97 0 71.94 0 109 0 C109 0.99 109 1.98 109 3 C107.42412109 3.41958984 107.42412109 3.41958984 105.81640625 3.84765625 C94.72389147 6.95144627 86.15650058 10.5282571 79.97265625 20.8125 C76.88828666 27.74923481 76.70804832 34.04541035 76.7215271 41.54759216 C76.7157347 42.7051349 76.7099423 43.86267764 76.70397437 45.05529743 C76.68994467 48.25475981 76.68474665 51.45409419 76.68332577 54.65358245 C76.67962237 58.10886802 76.66446222 61.56410586 76.65071106 65.0193634 C76.62846387 71.00135737 76.61343533 76.98333429 76.60334396 82.96536064 C76.58874316 91.61430341 76.56320241 100.26318683 76.53501268 108.91209472 C76.48957015 122.94520562 76.45294485 136.97832507 76.421875 151.01147461 C76.39167906 164.6413727 76.35732399 178.27124988 76.31738281 191.90112305 C76.31492126 192.74161674 76.31245972 193.58211042 76.30992357 194.44807362 C76.29754877 198.66468747 76.28509228 202.88130108 76.27259517 207.09791458 C76.16906539 242.06524766 76.0798496 277.03260513 76 312 C85.32837656 312.00833772 94.6559612 311.98420022 103.98412037 311.9197216 C108.31662536 311.89077069 112.64859356 311.87259577 116.98120117 311.87988281 C121.17024721 311.88651799 125.35823645 311.86375629 129.54706383 311.82144547 C131.13722657 311.8103881 132.72749745 311.80954691 134.31766701 311.81957626 C146.30892994 311.88545148 154.80433845 309.7802945 163.98339844 301.60009766 C165.20501958 300.38430631 166.41349111 299.15517834 167.609375 297.9140625 C168.26528625 297.25344818 168.92119751 296.59283386 169.59698486 295.91220093 C171.66010614 293.8280161 173.70488032 291.72683431 175.75 289.625 C177.1329972 288.22545744 178.51710506 286.82701151 179.90234375 285.4296875 C185.58519819 279.67189562 191.14796168 273.88162436 196.4468689 267.76611328 C198.18580916 265.78871068 200.00126091 263.92717554 201.90234375 262.10546875 C202.56113525 261.46569092 203.21992676 260.82591309 203.89868164 260.16674805 C204.5714917 259.51359619 205.24430176 258.86044434 205.9375 258.1875 C212.0414658 252.16452013 217.35046418 246.23381271 222 239 C222.65742188 237.98292969 223.31484375 236.96585938 223.9921875 235.91796875 C225.22366041 233.9916286 226.44504328 232.05876867 227.65234375 230.1171875 C229 228 229 228 230 227 C231.51928038 226.92820036 233.04167482 226.91607993 234.5625 226.9375 C235.38878906 226.94652344 236.21507812 226.95554687 237.06640625 226.96484375 C237.70449219 226.97644531 238.34257812 226.98804688 239 227 C235.95899737 232.60731216 232.44699426 237.64958344 228.625 242.75 C227.36841928 244.44135402 226.11191089 246.13276178 224.85546875 247.82421875 C224.21528809 248.68321777 223.57510742 249.5422168 222.91552734 250.42724609 C219.91054034 254.46325847 216.92308854 258.512127 213.9375 262.5625 C213.36112793 263.34351074 212.78475586 264.12452148 212.19091797 264.92919922 C208.17189229 270.38367169 204.20320444 275.87270866 200.25 281.375 C195.83383133 287.51711841 191.30941173 293.54547168 186.66796875 299.51953125 C182.1728614 305.34395798 177.8470462 311.29709423 173.4921875 317.2265625 C172.67588993 318.30160428 172.67588993 318.30160428 171.8431015 319.39836407 C169.94301276 321.97105395 169.94301276 321.97105395 168.46370697 324.83173084 C165.8239156 329.33727995 163.8370807 332.45646615 158.68760681 333.98003197 C154.4902046 334.31673072 150.4232797 334.29806111 146.22070312 334.15698242 C144.62351583 334.14400307 143.02628258 334.13590324 141.42904663 334.1322937 C137.10976895 334.10879233 132.79432509 334.01736586 128.47633553 333.91340423 C123.95775037 333.8162695 119.43869182 333.78203963 114.91931152 333.74104309 C106.36913751 333.65396945 97.8208786 333.51059968 89.27186728 333.34682685 C79.53596254 333.16307092 69.79959249 333.0423341 60.06267643 332.92680204 C40.04047869 332.68782366 20.02017725 332.3699897 0 332 C0 331.34 0 330.68 0 330 C1.59328125 329.45472656 1.59328125 329.45472656 3.21875 328.8984375 C14.59918238 324.8968525 23.64632443 320.80311571 30 310 C32.90570823 302.93245611 33.42770487 296.20311863 33.36749268 288.63900757 C33.37076152 287.53763226 33.37403036 286.43625695 33.37739825 285.30150664 C33.38464538 281.63364155 33.37055369 277.96618017 33.35644531 274.29833984 C33.35723665 271.65962243 33.35921144 269.02093021 33.36264038 266.38221741 C33.36825607 259.97328984 33.35799302 253.56448258 33.34235242 247.1555755 C33.32476385 239.68581707 33.32339213 232.21608156 33.32273683 224.74630566 C33.32105106 211.41613101 33.30526342 198.08601094 33.28125 184.75585938 C33.25798498 171.83170112 33.24382361 158.90757746 33.24023438 145.98339844 C33.24001161 145.18704709 33.23978884 144.39069574 33.23955932 143.57021253 C33.23911671 141.96584857 33.23867468 140.36148461 33.23823325 138.75712065 C33.2379039 137.56988439 33.2379039 137.56988439 33.2375679 136.35866356 C33.23735192 135.56912309 33.23713593 134.77958262 33.2369134 133.96611669 C33.23320923 121.63266528 33.22185069 109.29921941 33.2094375 96.96577411 C33.20500934 92.50179655 33.20156815 88.0378195 33.19881538 83.5738406 C33.19437565 76.49361765 33.18657618 69.41341523 33.17204097 62.33320521 C33.16545299 59.09981441 33.16089791 55.86644496 33.15958023 52.6330471 C33.15782967 49.12434659 33.14993398 45.61571206 33.14044189 42.10702515 C33.14130838 41.09048398 33.14217486 40.07394282 33.1430676 39.02659738 C33.12101891 33.59186883 32.79903226 28.37729889 32 23 C31.34 23 30.68 23 30 23 C29.814375 22.319375 29.62875 21.63875 29.4375 20.9375 C25.91653027 13.74247491 19.26551695 9.03285341 12 6 C8.03489956 4.81046987 4.05198469 3.84330646 0 3 C0 2.01 0 1.02 0 0 Z " fill="#EBEBEC" transform="translate(179,88)"/>
<path d="M0 0 C0.67756348 0.16097168 1.35512695 0.32194336 2.05322266 0.48779297 C18.66885252 4.52628718 34.24920056 11.83470721 48 22 C49.04285156 22.75925781 50.08570313 23.51851562 51.16015625 24.30078125 C57.09851095 28.70064693 62.72506301 33.39707865 68.1875 38.375 C68.74042725 38.87483398 69.29335449 39.37466797 69.86303711 39.88964844 C72.54000946 42.37958158 74.67033618 44.55755747 76 48 C75.43152344 48.67804688 74.86304688 49.35609375 74.27734375 50.0546875 C69.19949544 56.17523254 64.44756418 62.40730841 60 69 C57.30757503 67.65378752 57.33593409 66.50294706 56.375 63.6875 C49.02829372 44.6836583 32.85466306 30.53416441 16 20 C15.2265625 19.51402344 14.453125 19.02804688 13.65625 18.52734375 C-4.96695087 7.4951215 -31.42488844 5.51960295 -52.25 10.5 C-68.91932416 15.98634866 -82.1253353 25.10219119 -90.5625 40.921875 C-97.33727474 55.4287296 -98.34596391 70.33345117 -93.19262695 85.50952148 C-81.92417909 115.97236605 -49.10961787 130.78086085 -22.51953125 145.39453125 C-15.86608038 149.05681099 -9.28721405 152.83826508 -2.73388672 156.67626953 C-2.02893066 157.0886084 -1.32397461 157.50094727 -0.59765625 157.92578125 C0.00554443 158.28067627 0.60874512 158.63557129 1.23022461 159.0012207 C3.12278298 160.06929303 5.04904015 161.04343668 7 162 C6.43097076 165.45909881 5.42049733 166.89210517 2.75 169.125 C2.03070313 169.72699219 1.31140625 170.32898438 0.5703125 170.94921875 C-3.49430494 174.19226458 -7.61480223 177.35966455 -11.75 180.51171875 C-17.56847268 184.95258245 -23.3040236 189.49110238 -28.8125 194.3125 C-31.4033283 196.55386774 -34.00284139 198.31866712 -37 200 C-38.44085997 200.89041908 -39.87815187 201.78662872 -41.3125 202.6875 C-42.00988281 203.12449219 -42.70726562 203.56148437 -43.42578125 204.01171875 C-43.94527344 204.33785156 -44.46476562 204.66398438 -45 205 C-45.39832031 204.37351562 -45.79664063 203.74703125 -46.20703125 203.1015625 C-46.73683594 202.28429687 -47.26664062 201.46703125 -47.8125 200.625 C-48.33457031 199.81289063 -48.85664063 199.00078125 -49.39453125 198.1640625 C-50.98437197 195.76649759 -50.98437197 195.76649759 -54 194 C-54.515625 192.824375 -55.03125 191.64875 -55.5625 190.4375 C-60.04027719 181.19896342 -69.18682997 176.12119249 -77.67260742 171.01879883 C-82.9407358 167.7973615 -87.7798175 164.21549249 -92.5625 160.3125 C-93.20461426 159.79010742 -93.84672852 159.26771484 -94.50830078 158.72949219 C-112.12894576 144.09391601 -124.64147041 124.96925407 -128 102 C-128.23732009 97.62683799 -128.23091935 93.25400912 -128.25 88.875 C-128.270625 87.71484375 -128.29125 86.5546875 -128.3125 85.359375 C-128.41618865 62.18496264 -117.57456304 41.08767701 -101.875 24.5 C-89.82528261 12.75767336 -75.06338406 4.9568491 -58.94189453 0.53613281 C-57.21274376 0.05873589 -55.49409461 -0.45633497 -53.77734375 -0.9765625 C-36.67533546 -5.51166755 -17.05948624 -4.25536355 0 0 Z " fill="#834FC8" transform="translate(457,95)"/>
<path d="M0 0 C4.21846785 1.50885273 7.88229251 3.63737039 11.625 6.0625 C12.54478638 6.65804688 12.54478638 6.65804688 13.4831543 7.265625 C35.06670224 21.48088992 51.81253109 40.89997131 57.41992188 66.51220703 C58.37389206 72.24807323 58.39494959 77.88634668 58.3125 83.6875 C58.31572266 84.83283203 58.31894531 85.97816406 58.32226562 87.15820312 C58.17522457 110.53773037 48.19002154 132.04715396 31.765625 148.5234375 C19.11738247 160.57531212 0.18393344 171.95753081 -17.25 174 C-21.49989466 174.50209726 -25.59931205 175.11521414 -29.77734375 176.0390625 C-52.08539063 180.59657484 -75.37010795 175.64006677 -96 167 C-97.99914819 166.20618476 -99.99902386 165.41419618 -102 164.625 C-103.33409714 164.08521728 -104.66778619 163.5444143 -106 163 C-106 158.62548685 -105.59622397 157.99527997 -103 154.75 C-102.443125 154.04359375 -101.88625 153.3371875 -101.3125 152.609375 C-100.879375 152.07828125 -100.44625 151.5471875 -100 151 C-97.10776787 152.13004041 -94.26485392 153.32619596 -91.42578125 154.5859375 C-68.86827342 164.51533326 -41.94861886 168.97431544 -18.03125 160.73828125 C-3.28185142 154.78304842 8.54032616 147.60852793 16 133 C16.66 133 17.32 133 18 133 C21.65158275 121.1812612 22.74247639 110.34440085 22 98 C21.94070313 96.97003906 21.88140625 95.94007813 21.8203125 94.87890625 C20.78532597 86.38444361 16.16802315 79.30272389 12 72 C11.649375 71.21496094 11.29875 70.42992187 10.9375 69.62109375 C10.03224078 67.64245269 10.03224078 67.64245269 7 67 C5.81852601 65.85228241 4.6419606 64.69889404 3.49609375 63.515625 C-5.93861526 53.95774746 -17.43646081 47.6394492 -29 41 C-27.50872243 36.6558436 -25.19069966 33.17372114 -22.5 29.5 C-22.06075195 28.89269043 -21.62150391 28.28538086 -21.16894531 27.65966797 C-17.30016513 22.34112781 -13.30462378 17.12262002 -9.26953125 11.9296875 C-6.82767356 8.77754763 -4.43363664 5.59323241 -2.05859375 2.390625 C-1 1 -1 1 0 0 Z " fill="#713FB8" transform="translate(475,265)"/>
<path d="M0 0 C1.01634521 0.24145752 1.01634521 0.24145752 2.05322266 0.48779297 C18.66885252 4.52628718 34.24920056 11.83470721 48 22 C49.04285156 22.75925781 50.08570313 23.51851562 51.16015625 24.30078125 C57.09851095 28.70064693 62.72506301 33.39707865 68.1875 38.375 C68.74042725 38.87483398 69.29335449 39.37466797 69.86303711 39.88964844 C72.54000946 42.37958158 74.67033618 44.55755747 76 48 C75.43152344 48.67804688 74.86304688 49.35609375 74.27734375 50.0546875 C69.19949544 56.17523254 64.44756418 62.40730841 60 69 C57.30757503 67.65378752 57.33593409 66.50294706 56.375 63.6875 C49.02829372 44.6836583 32.85466306 30.53416441 16 20 C15.2265625 19.51402344 14.453125 19.02804688 13.65625 18.52734375 C-4.96695087 7.4951215 -31.42488844 5.51960295 -52.25 10.5 C-71.47297635 16.82682822 -83.84093025 28.02302928 -93 46 C-95.39456443 43.60543557 -95.75546876 42.34192692 -96 39 C-94.75 37.1875 -94.75 37.1875 -93 36 C-92.01 36 -91.02 36 -90 36 C-90 35.01 -90 34.02 -90 33 C-89.01 32.505 -89.01 32.505 -88 32 C-88 31.01 -88 30.02 -88 29 C-86.50390625 27.46484375 -86.50390625 27.46484375 -84.5625 25.9375 C-81.84124807 23.8328667 -81.84124807 23.8328667 -80 21 C-79.34 21 -78.68 21 -78 21 C-78.33 19.68 -78.66 18.36 -79 17 C-74.70768138 15.11137981 -70.46216533 13.45505391 -66 12 C-64.32836805 11.34588315 -62.65984798 10.68346682 -61 10 C-61 9.01 -61 8.02 -61 7 C-62.98 7 -64.96 7 -67 7 C-67.33 7.99 -67.66 8.98 -68 10 C-68.99 9.34 -69.98 8.68 -71 8 C-71 7.01 -71 6.02 -71 5 C-48.89841015 -5.08921304 -23.38776524 -5.83390627 0 0 Z " fill="#B38AE3" transform="translate(457,95)"/>
<path d="M0 0 C2.89223213 1.13004041 5.73514608 2.32619596 8.57421875 3.5859375 C30.86952255 13.39991592 58.25786822 18.29658623 81.84765625 9.7109375 C83.43900391 9.04964844 83.43900391 9.04964844 85.0625 8.375 C90.83526012 6 90.83526012 6 93 6 C91.63016497 9.16115776 91.0109362 9.9927092 88 12 C87.13375 12.165 86.2675 12.33 85.375 12.5 C84.59125 12.665 83.8075 12.83 83 13 C82.67 13.66 82.34 14.32 82 15 C80.68 15 79.36 15 78 15 C77.01 15.33 76.02 15.66 75 16 C73.01169146 16 71.02325525 15.99761532 69.03515625 15.96875 C66.8479143 15.94934268 66.8479143 15.94934268 64.125 16.5 C59.42583598 17.25186624 53.36214649 18.18107324 49 16 C49 16.66 49 17.32 49 18 C47.54207116 18.05399736 46.08357288 18.09279177 44.625 18.125 C43.40683594 18.15980469 43.40683594 18.15980469 42.1640625 18.1953125 C40 18 40 18 38 16 C35.34876805 15.38675658 35.34876805 15.38675658 32.3125 15 C28.7741585 14.47030816 25.40407789 13.91752746 22 12.8125 C19.09829345 12.02662114 17.68454855 11.65772572 15 13 C14.67 13.99 14.34 14.98 14 16 C15.32 16 16.64 16 18 16 C18 16.66 18 17.32 18 18 C18.886875 18.103125 19.77375 18.20625 20.6875 18.3125 C24.0573702 19.01190702 26.17271538 20.08742511 29 22 C22.44502641 24.53740913 13.39668343 20.15324464 7.25 17.5 C6.1775 17.005 5.105 16.51 4 16 C2.19071787 15.26288506 0.37800772 14.53414533 -1.4375 13.8125 C-2.30246094 13.46832031 -3.16742188 13.12414062 -4.05859375 12.76953125 C-4.69925781 12.51558594 -5.33992188 12.26164062 -6 12 C-6 7.62548685 -5.59622397 6.99527997 -3 3.75 C-2.443125 3.04359375 -1.88625 2.3371875 -1.3125 1.609375 C-0.879375 1.07828125 -0.44625 0.5471875 0 0 Z " fill="#5F369F" transform="translate(375,416)"/>
<path d="M0 0 C0 0.99 0 1.98 0 3 C3.84841348 4.18031238 7.758279 4.33235351 11.75 4.5625 C12.79607422 4.62727539 12.79607422 4.62727539 13.86328125 4.69335938 C15.57531922 4.79889596 17.28763561 4.8998991 19 5 C19 5.33 19 5.66 19 6 C18.4423999 6.0093457 17.8847998 6.01869141 17.31030273 6.02832031 C-3.29082124 6.46002337 -22.3672001 9.54260878 -37.9375 24.125 C-43.52310681 30.07015935 -47.32211062 36.78121998 -51 44 C-53.39456443 41.60543557 -53.75546876 40.34192692 -54 37 C-52.75 35.1875 -52.75 35.1875 -51 34 C-50.01 34 -49.02 34 -48 34 C-48 33.01 -48 32.02 -48 31 C-47.01 30.505 -47.01 30.505 -46 30 C-46 29.01 -46 28.02 -46 27 C-44.50390625 25.46484375 -44.50390625 25.46484375 -42.5625 23.9375 C-39.84124807 21.8328667 -39.84124807 21.8328667 -38 19 C-37.34 19 -36.68 19 -36 19 C-36.33 17.68 -36.66 16.36 -37 15 C-32.70768138 13.11137981 -28.46216533 11.45505391 -24 10 C-22.32836805 9.34588315 -20.65984798 8.68346682 -19 8 C-19 7.01 -19 6.02 -19 5 C-20.98 5 -22.96 5 -25 5 C-25.33 5.99 -25.66 6.98 -26 8 C-26.99 7.34 -27.98 6.68 -29 6 C-29 5.01 -29 4.02 -29 3 C-19.97581074 -1.21128832 -9.14385292 -6.09590195 0 0 Z " fill="#AF89DA" transform="translate(415,97)"/>
<path d="M0 0 C0.33 0.66 0.66 1.32 1 2 C1.79845148 1.99907821 2.59690296 1.99815641 3.41954994 1.99720669 C22.84928076 1.97512058 42.27900908 1.95857336 61.70874977 1.94818783 C71.10482865 1.94303195 80.50089915 1.93600272 89.89697266 1.92456055 C98.08675784 1.9145921 106.27653695 1.90814141 114.46632802 1.90591151 C118.80257822 1.90460808 123.13881106 1.90154543 127.47505569 1.89426994 C131.55761983 1.88747567 135.64015947 1.88538999 139.72272873 1.88689232 C141.21988813 1.88661752 142.71704837 1.88463263 144.21420288 1.88079453 C146.26153504 1.87580404 148.30877524 1.87702141 150.35610962 1.87974548 C151.50097651 1.87882369 152.64584339 1.8779019 153.82540321 1.87695217 C156.96401811 1.99860534 159.91747307 2.41267378 163 3 C159.30297611 9.01187775 155.5139728 14.81374287 151.1015625 20.32421875 C149.35059714 22.55360773 147.64818742 24.80460593 145.9609375 27.08203125 C145.42235107 27.80817627 144.88376465 28.53432129 144.32885742 29.2824707 C143.24537123 30.74629713 142.16474189 32.21224298 141.0871582 33.68041992 C140.33825317 34.68939331 140.33825317 34.68939331 139.57421875 35.71875 C139.12651123 36.32654297 138.67880371 36.93433594 138.2175293 37.56054688 C137 39 137 39 135 40 C136.74508154 35.16969142 139.19651564 30.78680537 141.6875 26.3125 C142.13158203 25.51247559 142.57566406 24.71245117 143.03320312 23.88818359 C145.95530671 18.69017033 149.05687603 13.73140187 152.625 8.9453125 C154.25265954 6.74645626 154.25265954 6.74645626 156 3 C104.52 3 53.04 3 0 3 C0 2.01 0 1.02 0 0 Z " fill="#797183" transform="translate(178,418)"/>
<path d="M0 0 C1.23556641 0.01740234 1.23556641 0.01740234 2.49609375 0.03515625 C3.32238281 0.04417969 4.14867187 0.05320312 5 0.0625 C5.63808594 0.07410156 6.27617187 0.08570313 6.93359375 0.09765625 C3.7187889 6.05995096 -0.08837964 11.41832974 -4.12890625 16.84765625 C-4.75345703 17.69714844 -5.37800781 18.54664063 -6.02148438 19.421875 C-11.07173838 26.24537722 -11.07173838 26.24537722 -14.06640625 29.09765625 C-14.39640625 27.77765625 -14.72640625 26.45765625 -15.06640625 25.09765625 C-19.33403938 27.38360965 -22.54304249 30.33349482 -25.87890625 33.78515625 C-26.38099609 34.29626953 -26.88308594 34.80738281 -27.40039062 35.33398438 C-28.62704134 36.58399987 -29.84738116 37.84020305 -31.06640625 39.09765625 C-31.72640625 38.76765625 -32.38640625 38.43765625 -33.06640625 38.09765625 C-32.65390625 37.7008667 -32.24140625 37.30407715 -31.81640625 36.89526367 C-21.04078442 26.47592286 -12.34638944 15.97161555 -4.4140625 3.21484375 C-2.44114779 0.11536615 -2.44114779 0.11536615 0 0 Z " fill="#D8D8D9" transform="translate(411.06640625,314.90234375)"/>
<path d="M0 0 C6.75222611 -0.35705073 12.35614524 0.9013467 18.8125 2.8125 C19.75287109 3.07353516 20.69324219 3.33457031 21.66210938 3.60351562 C29.22171796 5.79196557 29.22171796 5.79196557 32 9 C31.01 9.66 30.02 10.32 29 11 C27.78715124 14.05429073 27.78715124 14.05429073 27 17 C26.67 16.34 26.34 15.68 26 15 C25.09507812 15.08701172 25.09507812 15.08701172 24.171875 15.17578125 C21.70174768 15.31522392 19.45081871 15.3562486 17 15 C15.65080468 13.34614767 14.31866272 11.678298 13 10 C9.7151072 8.96074139 6.41275602 8.43636384 3 8 C3 6 3 4 3 2 C2.01 1.34 1.02 0.68 0 0 Z M1 9 C5 10 5 10 5 10 Z " fill="#BA91E6" transform="translate(445,94)"/>
<path d="M0 0 C4.21846785 1.50885273 7.88229251 3.63737039 11.625 6.0625 C12.23819092 6.45953125 12.85138184 6.8565625 13.4831543 7.265625 C31.39228805 19.06086281 46.65446376 34.51891659 54 55 C54 56.32 54 57.64 54 59 C53.34 59 52.68 59 52 59 C52 57.35 52 55.7 52 54 C50.68 53.67 49.36 53.34 48 53 C46.70074209 48.66914029 45.656379 44.48525648 45 40 C43.329375 39.7215625 43.329375 39.7215625 41.625 39.4375 C40.42875 38.963125 39.2325 38.48875 38 38 C36.75 34.5 36.75 34.5 36 31 C33.22739701 29.06201737 33.22739701 29.06201737 31 28 C31 27.01 31 26.02 31 25 C30.34 25 29.68 25 29 25 C27.5 22.5 27.5 22.5 26 20 C25.34 20 24.68 20 24 20 C24 19.34 24 18.68 24 18 C22.68 18.33 21.36 18.66 20 19 C19.87625 18.360625 19.7525 17.72125 19.625 17.0625 C19.41875 16.381875 19.2125 15.70125 19 15 C18.34 14.67 17.68 14.34 17 14 C16.67 14.99 16.34 15.98 16 17 C14 13 14 13 13.3125 11.0859375 C11.42012595 8.07841446 8.97973965 7.04113688 5.875 5.375 C3.88678144 4.30370106 1.91879761 3.19118017 0 2 C0 1.34 0 0.68 0 0 Z " fill="#8054B8" transform="translate(475,265)"/>
<path d="M0 0 C0.99 0.99 0.99 0.99 2 2 C-11.26076587 15.54904338 -29.79382697 20.95634146 -48.23974609 21.34228516 C-63.41156253 21.48624659 -77.93521386 20.09284258 -92 14 C-92 13.67 -92 13.34 -92 13 C-87.5465536 12.8287136 -84.91371655 13.04116931 -81 15 C-70.07787386 17.97142855 -59.31542401 18.51997762 -48.0625 18.6875 C-46.49281224 18.72078706 -44.9231497 18.75528651 -43.35351562 18.79101562 C-39.56915386 18.87458664 -35.78483626 18.94198871 -32 19 C-31.505 17.515 -31.505 17.515 -31 16 C-30.01 15.896875 -29.02 15.79375 -28 15.6875 C-23.71934177 15.09465935 -20.01551742 13.5653712 -16 12 C-15.34 12 -14.68 12 -14 12 C-13.5978125 11.0409375 -13.5978125 11.0409375 -13.1875 10.0625 C-12 8 -12 8 -9 7 C-8.67 6.34 -8.34 5.68 -8 5 C-7.34 5 -6.68 5 -6 5 C-6 4.34 -6 3.68 -6 3 C-3.03 2.505 -3.03 2.505 0 2 C0 1.34 0 0.68 0 0 Z " fill="#0F0222" transform="translate(481,409)"/>
<path d="M0 0 C1.7624707 -0.01160156 1.7624707 -0.01160156 3.56054688 -0.0234375 C4.68912109 -0.02085938 5.81769531 -0.01828125 6.98046875 -0.015625 C8.00422607 -0.01336914 9.0279834 -0.01111328 10.08276367 -0.00878906 C12.82295759 0.25099142 14.47384534 0.8438049 16.8125 2.25 C16.12542969 2.37117188 15.43835938 2.49234375 14.73046875 2.6171875 C13.37888672 2.86855469 13.37888672 2.86855469 12 3.125 C11.10667969 3.28742188 10.21335937 3.44984375 9.29296875 3.6171875 C6.58522154 4.16188449 6.58522154 4.16188449 3.8125 6.25 C2.48682801 6.93177416 1.15496312 7.60191436 -0.1875 8.25 C0.4725 8.91 1.1325 9.57 1.8125 10.25 C0.04200311 10.30410687 -1.72896849 10.34284119 -3.5 10.375 C-4.97919922 10.40980469 -4.97919922 10.40980469 -6.48828125 10.4453125 C-9.1875 10.25 -9.1875 10.25 -12.1875 8.25 C-12.1875 7.26 -12.1875 6.27 -12.1875 5.25 C-12.950625 5.311875 -13.71375 5.37375 -14.5 5.4375 C-17.1875 5.25 -17.1875 5.25 -19 3.75 C-19.391875 3.255 -19.78375 2.76 -20.1875 2.25 C-13.51624758 -0.20424177 -7.0471351 -0.04685076 0 0 Z " fill="#BA94E5" transform="translate(427.1875,91.75)"/>
<path d="M0 0 C1.485 1.98 1.485 1.98 3 4 C2.67 4.66 2.34 5.32 2 6 C1.34 6 0.68 6 0 6 C-0.33 6.99 -0.66 7.98 -1 9 C-2.32773168 9.67775425 -3.66180088 10.34315501 -5 11 C-8.95557495 15.2016155 -11.37866329 19.46043292 -13 25 C-13.66 25.33 -14.32 25.66 -15 26 C-15 26.99 -15 27.98 -15 29 C-16.99284138 30.3440093 -18.99419671 31.67541292 -21 33 C-21.93135633 34.05295007 -22.82862955 35.13713432 -23.6875 36.25 C-24.8321875 37.61125 -24.8321875 37.61125 -26 39 C-26.99 39 -27.98 39 -29 39 C-29.33 39.99 -29.66 40.98 -30 42 C-30.33 41.34 -30.66 40.68 -31 40 C-30.34 39.01 -29.68 38.02 -29 37 C-28.50643607 35.09155279 -28.01606313 33.1821084 -27.5546875 31.265625 C-25.55451758 23.09591686 -25.55451758 23.09591686 -24 20 C-21.375 18.625 -21.375 18.625 -19 18 C-18.67 17.01 -18.34 16.02 -18 15 C-17.34 15 -16.68 15 -16 15 C-17.65770333 19.49324849 -19.84982162 23.61186146 -22.125 27.8125 C-22.49753906 28.50537109 -22.87007813 29.19824219 -23.25390625 29.91210938 C-24.16690377 31.60934836 -25.08312716 33.30485138 -26 35 C-17.10952499 23.49249582 -8.24565928 11.98404501 0 0 Z " fill="#130427" transform="translate(340,422)"/>
<path d="M0 0 C2 4 2 4 1.609375 5.96484375 C1.32578125 6.61582031 1.0421875 7.26679688 0.75 7.9375 C0.45996094 8.62714844 0.16992188 9.31679688 -0.12890625 10.02734375 C-0.56009766 11.00380859 -0.56009766 11.00380859 -1 12 C-1.391875 12.99 -1.78375 13.98 -2.1875 15 C-2.455625 15.66 -2.72375 16.32 -3 17 C-2.34 17.66 -1.68 18.32 -1 19 C-1.0625 20.875 -1.0625 20.875 -2 23 C-4.5625 25.25 -4.5625 25.25 -7 27 C-7.66 26.67 -8.32 26.34 -9 26 C-9 26.66 -9 27.32 -9 28 C-9.94875 28.433125 -10.8975 28.86625 -11.875 29.3125 C-15.20041937 30.79302201 -15.20041937 30.79302201 -17 34 C-17.66 34 -18.32 34 -19 34 C-19.33 34.66 -19.66 35.32 -20 36 C-20.99 36 -21.98 36 -23 36 C-24.485 36.495 -24.485 36.495 -26 37 C-26.66 36.34 -27.32 35.68 -28 35 C-27.29875 34.59910156 -26.5975 34.19820313 -25.875 33.78515625 C-16.5369303 28.18992699 -9.95968166 21.71270991 -5 12 C-4.34 12 -3.68 12 -3 12 C-2.01 8.04 -1.02 4.08 0 0 Z M-5 18 C-4 20 -4 20 -4 20 Z M3 0 C3.33 0.99 3.66 1.98 4 3 C3.01 3.495 3.01 3.495 2 4 C2.33 2.68 2.66 1.36 3 0 Z " fill="#5D3598" transform="translate(496,386)"/>
<path d="M0 0 C-0.125 1.875 -0.125 1.875 -1 4 C-2.98636298 4.70626239 -4.98848259 5.36893571 -7 6 C-7.680625 6.680625 -8.36125 7.36125 -9.0625 8.0625 C-11.34827803 10.34827803 -12.840799 10.64897767 -16 11 C-16.33 12.65 -16.66 14.3 -17 16 C-19.475 15.505 -19.475 15.505 -22 15 C-23.89213369 17.38573379 -25.02391783 19.07175348 -26 22 C-26.99 22 -27.98 22 -29 22 C-29 22.66 -29 23.32 -29 24 C-30.95927063 25.7143618 -32.95880212 27.38405168 -35 29 C-35.35133172 25.37656395 -35.40070628 23.56894864 -33.26953125 20.54296875 C-26.6250391 14.17312969 -19.74570487 8.97142626 -12 4 C-11.27167969 3.52175781 -10.54335938 3.04351562 -9.79296875 2.55078125 C-6.43345241 0.46480705 -3.96967661 -0.48117292 0 0 Z " fill="#956CC5" transform="translate(385,102)"/>
<path d="M0 0 C-2.61469347 1.74312898 -5.22167657 3.08860978 -8.03881836 4.45947266 C-21.9432111 11.39349448 -30.02947011 21.31858746 -37 35 C-39.39456443 32.60543557 -39.75546876 31.34192692 -40 28 C-38.75 26.1875 -38.75 26.1875 -37 25 C-36.01 25 -35.02 25 -34 25 C-34 24.01 -34 23.02 -34 22 C-33.34 21.67 -32.68 21.34 -32 21 C-32 20.01 -32 19.02 -32 18 C-30.50390625 16.46484375 -30.50390625 16.46484375 -28.5625 14.9375 C-25.84124807 12.8328667 -25.84124807 12.8328667 -24 10 C-23.34 10 -22.68 10 -22 10 C-22.33 8.68 -22.66 7.36 -23 6 C-18.70768138 4.11137981 -14.46216533 2.45505391 -10 1 C-9.154375 0.608125 -8.30875 0.21625 -7.4375 -0.1875 C-4.55298468 -1.14900511 -2.88681916 -0.82480548 0 0 Z " fill="#A27BD2" transform="translate(401,106)"/>
<path d="M0 0 C0.66 0.33 1.32 0.66 2 1 C-3.6722603 19.49045637 -17.41920893 34.4948945 -34 44 C-34.66 43.34 -35.32 42.68 -36 42 C-35.25943359 41.51080078 -35.25943359 41.51080078 -34.50390625 41.01171875 C-33.86324219 40.57472656 -33.22257812 40.13773437 -32.5625 39.6875 C-31.92441406 39.25824219 -31.28632813 38.82898438 -30.62890625 38.38671875 C-28.7114316 36.9965948 -28.7114316 36.9965948 -28 34 C-26.67661368 33.31379969 -25.34050052 32.65213539 -24 32 C-19.53733475 28.781315 -19.53733475 28.781315 -17 24 C-14.9375 23.3125 -14.9375 23.3125 -13 23 C-13.33 22.01 -13.66 21.02 -14 20 C-13.2575 19.278125 -12.515 18.55625 -11.75 17.8125 C-7.42194301 13.38607808 -4.73222536 9.9961647 -3 4 C-2 2 -2 2 0 0 Z " fill="#653EA1" transform="translate(525,381)"/>
<path d="M0 0 C35.97 0 71.94 0 109 0 C109 0.99 109 1.98 109 3 C105.04 3.99 101.08 4.98 97 6 C97.33 4.68 97.66 3.36 98 2 C66.98 2 35.96 2 4 2 C5.98 2.66 7.96 3.32 10 4 C6.18510326 5.46726798 3.70988378 4.43336419 0 3 C0 2.01 0 1.02 0 0 Z " fill="#DEDEE0" transform="translate(179,88)"/>
<path d="M0 0 C5.09453672 -0.6175196 7.88366546 1.22939021 12 4 C12.33 4.99 12.66 5.98 13 7 C15.66137199 9.38122757 17.5967577 10.8655859 21 12 C20.5875 12.515625 20.175 13.03125 19.75 13.5625 C18.74011767 15.92214425 18.74011767 15.92214425 19.7578125 17.82421875 C20.77937269 19.58515992 21.88590741 21.29609368 23 23 C24.32 22.67 25.64 22.34 27 22 C27 22.66 27 23.32 27 24 C28.051875 23.2575 28.051875 23.2575 29.125 22.5 C32.37119719 20.8063319 34.39340156 20.74837685 38 21 C33.91266859 24.44868587 29.56194093 27.23793154 25 30 C24.60167969 29.37351562 24.20335937 28.74703125 23.79296875 28.1015625 C23.26316406 27.28429687 22.73335938 26.46703125 22.1875 25.625 C21.66542969 24.81289063 21.14335937 24.00078125 20.60546875 23.1640625 C19.01562803 20.76649759 19.01562803 20.76649759 16 19 C15.484375 17.824375 14.96875 16.64875 14.4375 15.4375 C11.72758104 9.62445815 6.82004099 6.04749087 2 2 C1.34 1.34 0.68 0.68 0 0 Z " fill="#5F3994" transform="translate(387,270)"/>
<path d="M0 0 C0.99 0.495 0.99 0.495 2 1 C-3.79452953 4.10925975 -9.49369134 4.74796768 -15.98828125 5.47265625 C-18.96061947 5.81613642 -21.81923856 6.38892147 -24.73828125 7.04296875 C-30.46506286 8.22016779 -36.04475665 8.30195634 -41.875 8.25 C-43.4518457 8.24419922 -43.4518457 8.24419922 -45.06054688 8.23828125 C-52.21348903 8.1584592 -59.02895954 7.71218538 -66 6 C-66 5.67 -66 5.34 -66 5 C-65.02240723 5.00523682 -64.04481445 5.01047363 -63.03759766 5.01586914 C-59.36605771 5.03414501 -55.69452168 5.04551349 -52.02294922 5.05493164 C-50.44221314 5.05992073 -48.86148159 5.06671438 -47.28076172 5.07543945 C-35.57873545 5.15926801 -35.57873545 5.15926801 -23.921875 4.22265625 C-21.27684236 3.91621954 -18.65865238 3.93003546 -16 4 C-16 3.34 -16 2.68 -16 2 C-15.02160156 2.03480469 -15.02160156 2.03480469 -14.0234375 2.0703125 C-8.84931122 2.17715287 -4.90072817 1.83777306 0 0 Z " fill="#4A2974" transform="translate(470,434)"/>
<path d="M0 0 C2.38487037 2.38487037 2.96103732 4.34183553 4.125 7.5 C6.76907613 13.9935399 10.32477999 18.82548465 15 24 C15.50917969 24.59039062 16.01835937 25.18078125 16.54296875 25.7890625 C24.13848152 34.02892469 34.23244715 40.62532852 44 46 C43.01 46.66 42.02 47.32 41 48 C40.113125 47.21625 39.22625 46.4325 38.3125 45.625 C35.66930627 43.4057147 33.23583059 42.22436833 30 41 C28.99165552 40.0084147 27.99265635 39.00729011 27 38 C25.76200344 37.08765036 24.5110488 36.19271206 23.25 35.3125 C15.92249701 29.85698682 10.93404916 22.69210748 5.796875 15.22265625 C4.12056438 12.74077517 4.12056438 12.74077517 1 12 C0.67 8.04 0.34 4.08 0 0 Z " fill="#8763B8" transform="translate(362,178)"/>
<path d="M0 0 C0.99 0.33 1.98 0.66 3 1 C4.1875 3.5625 4.1875 3.5625 5 6 C5.33 6 5.66 6 6 6 C6.36220266 7.79005941 6.71452469 9.58212057 7.0625 11.375 C7.25972656 12.37273437 7.45695312 13.37046875 7.66015625 14.3984375 C8 17 8 17 7 19 C7.66 19 8.32 19 9 19 C9.19818283 25.70518586 9.30844801 31.65176798 7 38 C6.34 38 5.68 38 5 38 C4.67 38.66 4.34 39.32 4 40 C4.01571045 39.04130005 4.01571045 39.04130005 4.03173828 38.06323242 C4.07388495 35.10469665 4.09950945 32.14622439 4.125 29.1875 C4.15013672 27.68026367 4.15013672 27.68026367 4.17578125 26.14257812 C4.23389338 17.10614197 3.21586567 8.49907357 0 0 Z " fill="#6A3CAB" transform="translate(493,346)"/>
<path d="M0 0 C0.55429687 0.69609375 1.10859375 1.3921875 1.6796875 2.109375 C12.48595359 15.5717267 23.57532856 26.43630718 38 36 C34.80367098 37.06544301 34.02974348 37.19353531 31 36 C28.75 34.0625 28.75 34.0625 27 32 C27 31.34 27 30.68 27 30 C25.35 29.67 23.7 29.34 22 29 C22 28.34 22 27.68 22 27 C21.34 27 20.68 27 20 27 C19.67 26.34 19.34 25.68 19 25 C18.4225 24.7525 17.845 24.505 17.25 24.25 C14.04121141 22.46733967 12.26912669 19.85095404 10 17 C9.46375 16.484375 8.9275 15.96875 8.375 15.4375 C5.73394619 12.67639828 4.19883587 9.59650761 3 6 C2.01 5.67 1.02 5.34 0 5 C0 3.35 0 1.7 0 0 Z " fill="#130527" transform="translate(340,228)"/>
<path d="M0 0 C0.495 0.495 0.495 0.495 1 1 C2.34747084 1.23075082 3.70377565 1.41153063 5.0625 1.5625 C6.361875 1.706875 7.66125 1.85125 9 2 C9 2.66 9 3.32 9 4 C8.07445312 3.855625 7.14890625 3.71125 6.1953125 3.5625 C-3.02000969 2.24518827 -12.12903206 1.78179212 -21.4375 1.75 C-22.52595215 1.74097656 -23.6144043 1.73195313 -24.73583984 1.72265625 C-30.67531679 1.74442254 -36.09795988 2.20594138 -41.86352539 3.66894531 C-44.21612216 4.03348893 -45.75315601 3.72801698 -48 3 C-41.6470799 -1.11071301 -41.6470799 -1.11071301 -38.6484375 -0.59765625 C-37.33746094 -0.30181641 -37.33746094 -0.30181641 -36 0 C-33.93453911 -0.05833137 -31.870109 -0.18585333 -29.8125 -0.375 C-28.76707031 -0.46523437 -27.72164063 -0.55546875 -26.64453125 -0.6484375 C-17.42340768 -1.87428849 -9.36725747 -2.69038632 0 0 Z " fill="#241731" transform="translate(448,91)"/>
<path d="M0 0 C0.7425 0.0825 1.485 0.165 2.25 0.25 C-1.78295106 4.46376563 -6.13706614 8.10796287 -10.6875 11.75 C-12.07189373 12.8642366 -13.45601252 13.97881488 -14.83984375 15.09375 C-15.83153564 15.88845703 -15.83153564 15.88845703 -16.84326172 16.69921875 C-18.63316839 18.15497895 -20.38144553 19.65009265 -22.12890625 21.15625 C-24.75 23.25 -24.75 23.25 -26.75 23.25 C-25.30971123 18.2089893 -22.77103775 16.34954993 -18.75 13.25 C-18.09 12.59 -17.43 11.93 -16.75 11.25 C-12.13461538 8.25 -12.13461538 8.25 -9.75 8.25 C-10.08 7.26 -10.41 6.27 -10.75 5.25 C-10.1725 5.1675 -9.595 5.085 -9 5 C-6.57320983 4.38895853 -6.57320983 4.38895853 -4.8125 2.1875 C-2.75 0.25 -2.75 0.25 0 0 Z " fill="#7A4EBC" transform="translate(450.75,267.75)"/>
<path d="M0 0 C4.68575421 3.72658664 4.68575421 3.72658664 5.4675293 6.89456177 C5.62726751 9.1633394 5.64077354 11.38617219 5.59375 13.66015625 C5.59379028 14.48704453 5.59383057 15.3139328 5.59387207 16.1658783 C5.58852608 17.90827057 5.57098254 19.65066298 5.54199219 21.39282227 C5.50007781 24.05755334 5.50093063 26.71975992 5.5078125 29.38476562 C5.49732117 31.0807467 5.48438337 32.77671478 5.46875 34.47265625 C5.46854858 35.26752945 5.46834717 36.06240265 5.46813965 36.88136292 C5.37646887 41.16966979 5.105823 43.90191063 2 47 C2.01047363 46.00258789 2.02094727 45.00517578 2.03173828 43.97753906 C2.06837717 40.22025244 2.0910574 36.46298105 2.10986328 32.70556641 C2.11982216 31.08997936 2.13339418 29.47440985 2.15087891 27.85888672 C2.25098843 18.36025995 2.03876406 9.33648208 0 0 Z " fill="#261147" transform="translate(530,323)"/>
<path d="M0 0 C0.99 0 1.98 0 3 0 C3.66 0.99 4.32 1.98 5 3 C5.66 3.33 6.32 3.66 7 4 C7 4.99 7 5.98 7 7 C7.66 7.33 8.32 7.66 9 8 C8.67 8.99 8.34 9.98 8 11 C8.97272675 12.35335895 9.9739266 13.68662604 11 15 C11 15.99 11 16.98 11 18 C11.66 18 12.32 18 13 18 C13.33 19.32 13.66 20.64 14 22 C14.66 22 15.32 22 16 22 C16.12375 22.639375 16.2475 23.27875 16.375 23.9375 C16.58125 24.618125 16.7875 25.29875 17 26 C17.66 26.33 18.32 26.66 19 27 C18.01 27.33 17.02 27.66 16 28 C0 8.19047619 0 8.19047619 0 0 Z " fill="#754BAE" transform="translate(334,214)"/>
<path d="M0 0 C0.59167969 0.08121094 1.18335938 0.16242188 1.79296875 0.24609375 C-0.51421936 4.53087167 -2.53669198 7.96900512 -6.20703125 11.24609375 C-6.53703125 10.25609375 -6.86703125 9.26609375 -7.20703125 8.24609375 C-8.85703125 8.57609375 -10.50703125 8.90609375 -12.20703125 9.24609375 C-12.20703125 10.23609375 -12.20703125 11.22609375 -12.20703125 12.24609375 C-12.86703125 12.24609375 -13.52703125 12.24609375 -14.20703125 12.24609375 C-11.54265838 4.25297515 -8.94950054 -0.71537606 0 0 Z " fill="#E8E8E9" transform="translate(416.20703125,314.75390625)"/>
<path d="M0 0 C6.79941298 3.29456093 13.41991605 6.72034795 19.84375 10.703125 C21.85498963 11.91278362 23.8866066 12.98172863 26 14 C25.65120368 17.25543229 24.97866739 18.01873107 22.4375 20.25 C21.633125 20.8275 20.82875 21.405 20 22 C20 18.79604584 20.74335022 16.90600261 22 14 C21.11248047 13.87044922 21.11248047 13.87044922 20.20703125 13.73828125 C14.48015812 12.71996286 12.02463495 11.34236928 8 7 C6.18352229 6.11899411 6.18352229 6.11899411 4.25 5.4375 C3.1775 4.963125 2.105 4.48875 1 4 C0.296875 1.91015625 0.296875 1.91015625 0 0 Z " fill="#845DB6" transform="translate(438,243)"/>
<path d="M0 0 C0.33 0 0.66 0 1 0 C1 2.31 1 4.62 1 7 C0.34 7 -0.32 7 -1 7 C-0.98839844 7.72445312 -0.97679687 8.44890625 -0.96484375 9.1953125 C-0.95130859 10.64550781 -0.95130859 10.64550781 -0.9375 12.125 C-0.92589844 13.07632813 -0.91429687 14.02765625 -0.90234375 15.0078125 C-1.00308377 18.09448673 -1.47255921 20.95945898 -2 24 C-2.21122748 26.28960156 -2.39867992 28.58151895 -2.5625 30.875 C-2.68818359 32.60363281 -2.68818359 32.60363281 -2.81640625 34.3671875 C-2.87699219 35.23601562 -2.93757813 36.10484375 -3 37 C-5.52100086 33.16281396 -5.42255284 29.12587167 -5.4375 24.6875 C-5.44136719 23.89875488 -5.44523437 23.11000977 -5.44921875 22.29736328 C-5.29385808 14.22993686 -3.06570523 7.42338624 0 0 Z " fill="#1E0D35" transform="translate(365,137)"/>
<path d="M0 0 C0.55123535 0.14622803 1.1024707 0.29245605 1.67041016 0.44311523 C15.8539091 4.12860285 29.34920258 5.89079353 44 6 C44 6.33 44 6.66 44 7 C40.06343684 7.22934956 36.12587902 7.4295249 32.1875 7.625 C31.08728516 7.68945312 29.98707031 7.75390625 28.85351562 7.8203125 C18.22754534 8.32183322 8.94926688 6.68491366 -1 3 C-0.67 2.01 -0.34 1.02 0 0 Z " fill="#523284" transform="translate(393,424)"/>
<path d="M0 0 C1.32 0 2.64 0 4 0 C-0.0168635 9.01296239 -8.80644448 14.18026146 -17 19 C-17.66 18.34 -18.32 17.68 -19 17 C-18.25943359 16.51080078 -18.25943359 16.51080078 -17.50390625 16.01171875 C-16.54291016 15.35623047 -16.54291016 15.35623047 -15.5625 14.6875 C-14.60537109 14.04361328 -14.60537109 14.04361328 -13.62890625 13.38671875 C-11.7114316 11.9965948 -11.7114316 11.9965948 -11 9 C-9.67661368 8.31379969 -8.34050052 7.65213539 -7 7 C-2.90934659 4.0301197 -2.90934659 4.0301197 0 0 Z " fill="#5E379B" transform="translate(508,406)"/>
<path d="M0 0 C5.1135014 9.57937915 4.61978275 25.91576247 1.5 36.1875 C1.02839121 37.46914055 0.54145711 38.74626895 0 40 C-0.33 40 -0.66 40 -1 40 C-0.96970703 39.17910889 -0.93941406 38.35821777 -0.90820312 37.51245117 C-0.79479214 34.41305993 -0.68319537 31.31360969 -0.57275391 28.21411133 C-0.50168685 26.23448842 -0.42860231 24.25493827 -0.35546875 22.27539062 C-0.09215502 14.84618173 0.06979257 7.43387795 0 0 Z " fill="#0F0225" transform="translate(495,352)"/>
<path d="M0 0 C0.87398438 0.33257812 0.87398438 0.33257812 1.765625 0.671875 C1.2809375 1.08695312 0.79625 1.50203125 0.296875 1.9296875 C-6.26052418 7.95745059 -10.12514677 14.89057048 -14.234375 22.671875 C-16.62893943 20.27731057 -16.98984376 19.01380192 -17.234375 15.671875 C-15.984375 13.859375 -15.984375 13.859375 -14.234375 12.671875 C-13.244375 12.671875 -12.254375 12.671875 -11.234375 12.671875 C-11.234375 11.681875 -11.234375 10.691875 -11.234375 9.671875 C-10.574375 9.341875 -9.914375 9.011875 -9.234375 8.671875 C-9.234375 7.681875 -9.234375 6.691875 -9.234375 5.671875 C-7.84375 4.03125 -7.84375 4.03125 -5.984375 2.421875 C-5.07945312 1.60976562 -5.07945312 1.60976562 -4.15625 0.78125 C-2.234375 -0.328125 -2.234375 -0.328125 0 0 Z " fill="#966ECC" transform="translate(378.234375,118.328125)"/>
<path d="M0 0 C4.32238403 1.53322302 8.04956511 3.76279692 11.875 6.25 C12.49197754 6.64823975 13.10895508 7.04647949 13.74462891 7.45678711 C18.14148222 10.33674345 22.14245091 13.41799013 26 17 C25.67 17.99 25.34 18.98 25 20 C24.67 19.34 24.34 18.68 24 18 C22.68 18.33 21.36 18.66 20 19 C19.87625 18.360625 19.7525 17.72125 19.625 17.0625 C19.41875 16.381875 19.2125 15.70125 19 15 C18.34 14.67 17.68 14.34 17 14 C16.67 14.99 16.34 15.98 16 17 C14 13 14 13 13.3125 11.0859375 C11.42012595 8.07841446 8.97973965 7.04113688 5.875 5.375 C3.88678144 4.30370106 1.91879761 3.19118017 0 2 C0 1.34 0 0.68 0 0 Z " fill="#895DC4" transform="translate(475,265)"/>
<path d="M0 0 C6.57315478 -0.36517527 11.79485526 0.86380263 18 3 C17.401875 3.144375 16.80375 3.28875 16.1875 3.4375 C14.43849596 3.8872439 12.71322977 4.42892341 11 5 C11 5.99 11 6.98 11 8 C5.25 9.125 5.25 9.125 3 8 C3 6 3 4 3 2 C2.01 1.34 1.02 0.68 0 0 Z M1 9 C5 10 5 10 5 10 Z " fill="#BD99E3" transform="translate(445,94)"/>
<path d="M0 0 C4.03175856 1.34391952 7.08208294 3.36288681 10.44921875 5.87890625 C12.01676289 7.07570876 12.01676289 7.07570876 14 8 C14 8.66 14 9.32 14 10 C14.99 9.67 15.98 9.34 17 9 C17 10.32 17 11.64 17 13 C17.99 13 18.98 13 20 13 C20 13.66 20 14.32 20 15 C20.99 15.33 21.98 15.66 23 16 C21.02 16.99 21.02 16.99 19 18 C16.76534507 16.13123579 14.5373673 14.25535738 12.3125 12.375 C11.68666016 11.85292969 11.06082031 11.33085937 10.41601562 10.79296875 C6.49165206 7.46445096 3.17921756 4.04848737 0 0 Z " fill="#6F4BA4" transform="translate(351,242)"/>
<path d="M0 0 C0.66 0 1.32 0 2 0 C1.76568813 5.74064091 0.32415048 8.37102462 -3.625 12.51953125 C-5.10301775 13.97187227 -5.10301775 13.97187227 -6 16 C-6.66 16 -7.32 16 -8 16 C-8.0825 16.7425 -8.165 17.485 -8.25 18.25 C-9.1396946 21.51221354 -10.48503749 22.80954878 -13 25 C-13.99 24.67 -14.98 24.34 -16 24 C-15.58637207 23.44538086 -15.17274414 22.89076172 -14.74658203 22.31933594 C-12.86948392 19.79861615 -10.99720181 17.27435822 -9.125 14.75 C-8.47402344 13.87730469 -7.82304688 13.00460938 -7.15234375 12.10546875 C-6.21455078 10.83896484 -6.21455078 10.83896484 -5.2578125 9.546875 C-4.6817627 8.77182617 -4.10571289 7.99677734 -3.51220703 7.19824219 C-1.0460629 3.87587782 -1.0460629 3.87587782 0 0 Z " fill="#221133" transform="translate(532,140)"/>
<path d="M0 0 C0.33 0.99 0.66 1.98 1 3 C2.32 2.67 3.64 2.34 5 2 C4.39305845 5.15330554 3.3583335 7.18888867 1.4375 9.75 C0.98246094 10.36359375 0.52742188 10.9771875 0.05859375 11.609375 C-0.29074219 12.06828125 -0.64007813 12.5271875 -1 13 C-2.74627478 10.38058783 -3.38722388 8.96175123 -4 6 C-5.98 6.33 -7.96 6.66 -10 7 C-7.93814793 3.9072219 -7.09630198 3.31923802 -3.875 1.8125 C-3.15054687 1.46832031 -2.42609375 1.12414062 -1.6796875 0.76953125 C-1.12539063 0.51558594 -0.57109375 0.26164062 0 0 Z " fill="#E6E6E7" transform="translate(385,350)"/>
<path d="M0 0 C0.68359375 1.703125 0.68359375 1.703125 1 4 C-0.21484375 6.359375 -0.21484375 6.359375 -1.9375 8.75 C-2.50339844 9.54921875 -3.06929688 10.3484375 -3.65234375 11.171875 C-4.09707031 11.77515625 -4.54179687 12.3784375 -5 13 C-5.99 12.34 -6.98 11.68 -8 11 C-8.66 11 -9.32 11 -10 11 C-9.34 8.69 -8.68 6.38 -8 4 C-7.01 4 -6.02 4 -5 4 C-5 3.01 -5 2.02 -5 1 C-2 0 -2 0 0 0 Z " fill="#EAEAEA" transform="translate(409,323)"/>
<path d="M0 0 C18.48 0 36.96 0 56 0 C56 0.33 56 0.66 56 1 C49.4 1.66 42.8 2.32 36 3 C36 2.67 36 2.34 36 2 C24.12 1.67 12.24 1.34 0 1 C0 0.67 0 0.34 0 0 Z " fill="#FAFAFC" transform="translate(196,89)"/>
<path d="M0 0 C0.66 0 1.32 0 2 0 C0.3003494 4.73474097 -2.13659027 8.96167111 -4.625 13.3125 C-5.04523438 14.05306641 -5.46546875 14.79363281 -5.8984375 15.55664062 C-6.92948495 17.37269011 -7.96436046 19.18656533 -9 21 C-9.33 21 -9.66 21 -10 21 C-9.41517939 15.50268623 -8.54125078 9.9688684 -6 5 C-3.375 3.625 -3.375 3.625 -1 3 C-0.67 2.01 -0.34 1.02 0 0 Z " fill="#100320" transform="translate(322,437)"/>
<path d="M0 0 C3.3125 0.1875 3.3125 0.1875 6 1 C-2.554346 7.81104326 -14.81768156 13.88281461 -26 13 C-23.43812937 11.56616789 -20.84543823 10.57873303 -18.06640625 9.66796875 C-17.33486328 9.42626953 -16.60332031 9.18457031 -15.84960938 8.93554688 C-14.33183171 8.439126 -12.81096687 7.95204112 -11.28710938 7.47460938 C-6.31787529 5.80945705 -3.66522986 3.86299406 0 0 Z " fill="#5C3798" transform="translate(484,424)"/>
<path d="M0 0 C2.0625 0.75 2.0625 0.75 4 2 C4.33 2.99 4.66 3.98 5 5 C7.31808364 6.03485877 9.65175298 7.0355414 12 8 C12.33 8.66 12.66 9.32 13 10 C14.134375 10.45375 15.26875 10.9075 16.4375 11.375 C20 13 20 13 21.4375 15.1875 C21.623125 15.785625 21.80875 16.38375 22 17 C16.95871612 15.29944716 12.73986606 12.44272881 8.3125 9.5625 C7.54099609 9.07201172 6.76949219 8.58152344 5.97460938 8.07617188 C5.23662109 7.59857422 4.49863281 7.12097656 3.73828125 6.62890625 C3.06837158 6.19650635 2.39846191 5.76410645 1.70825195 5.31860352 C0 4 0 4 -2 1 C-1.34 0.67 -0.68 0.34 0 0 Z " fill="#22103D" transform="translate(392,212)"/>
<path d="M0 0 C0 0.33 0 0.66 0 1 C-0.67579102 1.02505615 -1.35158203 1.0501123 -2.04785156 1.07592773 C-5.1154168 1.19210742 -8.18269158 1.31473437 -11.25 1.4375 C-12.31347656 1.47681641 -13.37695312 1.51613281 -14.47265625 1.55664062 C-15.49746094 1.59853516 -16.52226562 1.64042969 -17.578125 1.68359375 C-18.52075195 1.72025146 -19.46337891 1.75690918 -20.43457031 1.79467773 C-23.88751972 2.07103198 -26.83114114 2.94596517 -30.125 4 C-34.66476747 5.32533516 -39.30141926 5.64075238 -44 6 C-34.15519001 -3.84480999 -12.430076 -0.35216517 0 0 Z " fill="#2A183C" transform="translate(440,103)"/>
<path d="M0 0 C0 0.66 0 1.32 0 2 C-5.34549719 3.12536783 -12.93067925 4.53466037 -18 2 C-18 2.66 -18 3.32 -18 4 C-20.97 4 -23.94 4 -27 4 C-27.33 3.01 -27.66 2.02 -28 1 C-24.27091231 0.83153467 -20.54171841 0.66554419 -16.8125 0.5 C-15.75740234 0.45230469 -14.70230469 0.40460938 -13.61523438 0.35546875 C-12.08286133 0.28779297 -12.08286133 0.28779297 -10.51953125 0.21875 C-9.58214111 0.17685547 -8.64475098 0.13496094 -7.67895508 0.09179688 C-5.11673177 0.00399992 -2.56347632 -0.01626313 0 0 Z " fill="#60369D" transform="translate(442,430)"/>
<path d="M0 0 C0.90069214 0.1071936 0.90069214 0.1071936 1.81958008 0.21655273 C10.44671355 1.13093465 19.02674755 1.11376995 27.6875 1.0625 C29.17903494 1.05747144 30.67057154 1.05291095 32.16210938 1.04882812 C35.77477462 1.03793804 39.38737632 1.02074936 43 1 C39.13266793 3.57416488 35.0579151 3.30599053 30.5859375 3.30078125 C29.77508698 3.30506638 28.96423645 3.3093515 28.1288147 3.31376648 C26.41921929 3.31949813 24.7095995 3.32001863 23 3.31567383 C20.37718594 3.31250264 17.75548809 3.33602505 15.1328125 3.36132812 C13.47135559 3.36360004 11.80989565 3.36430512 10.1484375 3.36328125 C9.36197845 3.372491 8.57551941 3.38170074 7.76522827 3.39118958 C5.56005859 3.37231445 5.56005859 3.37231445 2 3 C1.34 2.01 0.68 1.02 0 0 Z " fill="#100127" transform="translate(405,440)"/>
<path d="M0 0 C-4.08733141 3.44868587 -8.43805907 6.23793154 -13 9 C-14.65 6.69 -16.3 4.38 -18 2 C-17.01 2 -16.02 2 -15 2 C-13.66018514 1.6937566 -12.32488113 1.36548445 -11 1 C-11 1.66 -11 2.32 -11 3 C-10.29875 2.505 -9.5975 2.01 -8.875 1.5 C-5.62880281 -0.1936681 -3.60659844 -0.25162315 0 0 Z " fill="#5C3391" transform="translate(425,291)"/>
<path d="M0 0 C8.56508519 4.0754564 15.54481214 9.05786374 22 16 C22 16.66 22 17.32 22 18 C20.35 17.67 18.7 17.34 17 17 C16.67 15.35 16.34 13.7 16 12 C15.236875 11.9175 14.47375 11.835 13.6875 11.75 C11 11 11 11 9.625 9.125 C8.01479539 6.65108324 8.01479539 6.65108324 4.375 5.5 C3.26125 5.005 2.1475 4.51 1 4 C0.2890625 1.90625 0.2890625 1.90625 0 0 Z " fill="#110424" transform="translate(378,265)"/>
<path d="M0 0 C0.33 0 0.66 0 1 0 C1.33 1.98 1.66 3.96 2 6 C0.9171875 6.804375 0.9171875 6.804375 -0.1875 7.625 C-4.81296547 11.53094862 -7.89544608 15.33389329 -10 21 C-10.66 21.33 -11.32 21.66 -12 22 C-10.76048749 13.70707109 -4.98499517 6.55170794 0 0 Z " fill="#8B65BC" transform="translate(349,126)"/>
<path d="M0 0 C1.88154202 0.94580187 3.70113503 2.01309685 5.50390625 3.1015625 C5.17390625 4.0915625 4.84390625 5.0815625 4.50390625 6.1015625 C3.92125 5.90820312 3.33859375 5.71484375 2.73828125 5.515625 C-3.93512169 3.39608507 -10.57317388 2.11264186 -17.49609375 1.1015625 C-12.1946764 -1.99505979 -5.73736231 -2.06509129 0 0 Z M-11.49609375 0.1015625 C-7.49609375 1.1015625 -7.49609375 1.1015625 -7.49609375 1.1015625 Z " fill="#A686C8" transform="translate(457.49609375,102.8984375)"/>
<path d="M0 0 C1.15371094 0.00322266 2.30742187 0.00644531 3.49609375 0.00976562 C4.68589844 0.01814453 5.87570312 0.02652344 7.1015625 0.03515625 C8.92107422 0.04192383 8.92107422 0.04192383 10.77734375 0.04882812 C13.76046757 0.06057271 16.74348929 0.07699785 19.7265625 0.09765625 C19.7265625 0.42765625 19.7265625 0.75765625 19.7265625 1.09765625 C-4.31126901 4.22090118 -4.31126901 4.22090118 -12.2734375 2.09765625 C-12.2734375 1.76765625 -12.2734375 1.43765625 -12.2734375 1.09765625 C-8.12420692 0.31185832 -4.22050319 -0.02089358 0 0 Z " fill="#AE93CB" transform="translate(420.2734375,91.90234375)"/>
<path d="M0 0 C3.63 0 7.26 0 11 0 C11 0.66 11 1.32 11 2 C11.886875 2.103125 12.77375 2.20625 13.6875 2.3125 C17.0573702 3.01190702 19.17271538 4.08742511 22 6 C18.01368386 7.55466329 14.99556343 6.41819439 11 5.25 C9.783125 4.90453125 8.56625 4.5590625 7.3125 4.203125 C4 3 4 3 0 0 Z " fill="#593495" transform="translate(382,432)"/>
<path d="M0 0 C0 0.66 0 1.32 0 2 C1.98 2.66 3.96 3.32 6 4 C6.12375 5.175625 6.12375 5.175625 6.25 6.375 C6.72806339 9.14749104 6.72806339 9.14749104 9.0625 10.3125 C9.701875 10.539375 10.34125 10.76625 11 11 C6.83202572 11 4.29616581 8.85272137 0.9375 6.625 C0.30005859 6.2125 -0.33738281 5.8 -0.99414062 5.375 C-3.52729113 3.72004393 -5.85478864 2.14521136 -8 0 C-4.71303767 -0.79953138 -3.28976808 -1.09658936 0 0 Z " fill="#6D45A4" transform="translate(464,311)"/>
<path d="M0 0 C3.71599191 -0.20086443 4.77208445 -0.1519437 8 2 C8 2.66 8 3.32 8 4 C8.556875 3.79375 9.11375 3.5875 9.6875 3.375 C12.7611423 2.87657152 14.29394506 3.50454858 17 5 C19.13637125 7.95022696 19.19859326 10.42532128 19 14 C18.34 13.67 17.68 13.34 17 13 C17 12.01 17 11.02 17 10 C16.19175781 9.61328125 15.38351562 9.2265625 14.55078125 8.828125 C13.48214844 8.30734375 12.41351563 7.7865625 11.3125 7.25 C10.25675781 6.73953125 9.20101563 6.2290625 8.11328125 5.703125 C5.09996917 4.05468828 2.60712352 2.22500338 0 0 Z " fill="#220F33" transform="translate(446,247)"/>
<path d="M0 0 C0.66 0.66 1.32 1.32 2 2 C0.35257216 4.22402758 -1.32679595 6.40601921 -3.0625 8.5625 C-5.08605777 11.03862162 -5.08605777 11.03862162 -7 14 C-7.99 14 -8.98 14 -10 14 C-10 14.99 -10 15.98 -10 17 C-10.66 17 -11.32 17 -12 17 C-9.91435882 10.32594822 -5.07434458 4.68401038 0 0 Z " fill="#0F031A" transform="translate(378,120)"/>
<path d="M0 0 C0.33 1.32 0.66 2.64 1 4 C3.31 4.33 5.62 4.66 8 5 C8.33 6.32 8.66 7.64 9 9 C6.39517051 9.94721072 4.69325299 10.30222393 2.109375 9.17578125 C0.37417127 8.17063275 -1.31640423 7.0893855 -3 6 C-1.125 1.125 -1.125 1.125 0 0 Z " fill="#573595" transform="translate(371,421)"/>
<path d="M0 0 C0.33 0 0.66 0 1 0 C1.05395478 1.62463842 1.09277195 3.24978541 1.125 4.875 C1.14820313 5.77992188 1.17140625 6.68484375 1.1953125 7.6171875 C1 10 1 10 -1 12 C-1.71408334 13.98356483 -2.38617742 15.98315437 -3 18 C-3.66 18 -4.32 18 -5 18 C-5 18.66 -5 19.32 -5 20 C-5.66 20 -6.32 20 -7 20 C-4.80962826 13.27954125 -2.44234339 6.63275997 0 0 Z " fill="#120329" transform="translate(531,370)"/>
<path d="M0 0 C1.98438396 0.07869838 3.97111348 0.10784044 5.95703125 0.09765625 C7.06884766 0.09443359 8.18066406 0.09121094 9.32617188 0.08789062 C10.47666016 0.07951172 11.62714844 0.07113281 12.8125 0.0625 C13.98232422 0.05798828 15.15214844 0.05347656 16.35742188 0.04882812 C19.23833358 0.0370693 22.11914044 0.02063426 25 0 C25 0.33 25 0.66 25 1 C24.03344482 1.029729 24.03344482 1.029729 23.04736328 1.06005859 C20.07289417 1.15645589 17.09902043 1.26566101 14.125 1.375 C13.11179687 1.4059375 12.09859375 1.436875 11.0546875 1.46875 C5.23446415 1.69260474 -0.18875879 2.27820451 -5.84814453 3.68212891 C-8.20277211 4.0299534 -9.75277442 3.72694971 -12 3 C-5.61180645 -1.13353701 -5.61180645 -1.13353701 0 0 Z " fill="#2D1D3C" transform="translate(412,91)"/>
<path d="M0 0 C0.66 0 1.32 0 2 0 C2 0.66 2 1.32 2 2 C2.66 2 3.32 2 4 2 C4.33 3.65 4.66 5.3 5 7 C5.66 7 6.32 7 7 7 C11.09030544 12.14209827 11.09030544 12.14209827 10.75 15.375 C10.37875 16.179375 10.37875 16.179375 10 17 C7.13865759 13.53726925 4.63425466 9.99313724 2.25 6.1875 C1.63640625 5.21167969 1.0228125 4.23585937 0.390625 3.23046875 C-0.06828125 2.49441406 -0.5271875 1.75835937 -1 1 C-0.67 0.67 -0.34 0.34 0 0 Z " fill="#A480CD" transform="translate(501,135)"/>
<path d="M0 0 C0.66 0.33 1.32 0.66 2 1 C1.68546875 1.64324219 1.3709375 2.28648437 1.046875 2.94921875 C-2.35254872 10.12691764 -4.82774893 17.36678254 -7 25 C-7.33 25 -7.66 25 -8 25 C-8.3521412 14.96397579 -5.51035604 8.26553405 0 0 Z " fill="#17052A" transform="translate(338,140)"/>
<path d="M0 0 C0.66 0.33 1.32 0.66 2 1 C-8.18839799 6.46694526 -20.69384546 6.37897725 -32 6 C-28.5233662 3.85663839 -25.78770805 3.78722374 -21.75 3.875 C-20.67234375 3.89304687 -19.5946875 3.91109375 -18.484375 3.9296875 C-17.25460937 3.96449219 -17.25460937 3.96449219 -16 4 C-16 3.34 -16 2.68 -16 2 C-15.02160156 2.03480469 -15.02160156 2.03480469 -14.0234375 2.0703125 C-8.84931122 2.17715287 -4.90072817 1.83777306 0 0 Z " fill="#4F2D80" transform="translate(470,434)"/>
<path d="M0 0 C0.66 0.33 1.32 0.66 2 1 C-1.82052457 7.29262871 -9.26446436 9.90204627 -16 12 C-18.23828125 11.57421875 -18.23828125 11.57421875 -20 11 C-18.89140625 10.45730469 -17.7828125 9.91460937 -16.640625 9.35546875 C-15.17697731 8.63302726 -13.7134415 7.91035908 -12.25 7.1875 C-11.52039063 6.83107422 -10.79078125 6.47464844 -10.0390625 6.10742188 C-6.44089782 4.32469483 -3.10367291 2.58911661 0 0 Z " fill="#1B0836" transform="translate(494,422)"/>
<path d="M0 0 C3.5361739 5.30426085 3.12967778 10.64764679 3.0625 16.8125 C3.05798828 17.60076172 3.05347656 18.38902344 3.04882812 19.20117188 C3.03711312 21.13414761 3.01917998 23.06708393 3 25 C2.34 25 1.68 25 1 25 C0.67 25.66 0.34 26.32 0 27 C0 18.09 0 9.18 0 0 Z " fill="#4F2D80" transform="translate(497,359)"/>
<path d="M0 0 C7.06081872 3.49056275 13.67789702 7.29205098 20 12 C19.01 12.495 19.01 12.495 18 13 C16.25816781 12.04692201 14.51943228 11.08588583 12.8203125 10.05859375 C10.63092536 8.78536647 8.37731965 7.86447987 6 7 C6 6.34 6 5.68 6 5 C5.071875 4.7834375 5.071875 4.7834375 4.125 4.5625 C2 4 2 4 0 3 C0 2.01 0 1.02 0 0 Z " fill="#100322" transform="translate(450,308)"/>
<path d="M0 0 C5.40489519 1.52012677 8.98492628 5.27385218 13 9 C10 9 10 9 7 7.4375 C4.05068616 5.59692435 4.05068616 5.59692435 1 7 C0.01 6.01 -0.98 5.02 -2 4 C-1 1 -1 1 0 0 Z " fill="#BA9BDF" transform="translate(507,120)"/>
<path d="M0 0 C0.66 0 1.32 0 2 0 C0.45315734 3.32687768 -1.45954979 6.24703978 -3.5625 9.25 C-4.18253906 10.14203125 -4.80257812 11.0340625 -5.44140625 11.953125 C-6.21291016 12.96632812 -6.21291016 12.96632812 -7 14 C-7.33 14 -7.66 14 -8 14 C-8 12.02 -8 10.04 -8 8 C-7.01 7.67 -6.02 7.34 -5 7 C-5.33 6.01 -5.66 5.02 -6 4 C-3 2 -3 2 0 2 C0 1.34 0 0.68 0 0 Z " fill="#A280C6" transform="translate(527,146)"/>
<path d="M0 0 C4.21654356 1.48635116 7.62478605 3.61249159 11.3125 6.125 C12.38113281 6.84945312 13.44976562 7.57390625 14.55078125 8.3203125 C15.76314453 9.15175781 15.76314453 9.15175781 17 10 C16.01 11.485 16.01 11.485 15 13 C15 12.34 15 11.68 15 11 C13.9171875 10.62875 13.9171875 10.62875 12.8125 10.25 C10 9 10 9 7.5 6.9375 C4.8814868 4.90815227 3.24633712 4.37100996 0 4 C0 2.68 0 1.36 0 0 Z " fill="#B194CF" transform="translate(491,109)"/>
<path d="M0 0 C1.32 0.66 2.64 1.32 4 2 C3.09507812 2.87011719 3.09507812 2.87011719 2.171875 3.7578125 C-2.09954668 7.93278273 -5.96004212 11.8452888 -9 17 C-10 14 -10 14 -8.6875 11.3125 C-8.130625 10.549375 -7.57375 9.78625 -7 9 C-6.34 9 -5.68 9 -5 9 C-5 8.34 -5 7.68 -5 7 C-4.34 7 -3.68 7 -3 7 C-2.690625 6.030625 -2.38125 5.06125 -2.0625 4.0625 C-1 1 -1 1 0 0 Z " fill="#150826" transform="translate(354,116)"/>
<path d="M0 0 C3.34373475 0.55728913 6.03312999 1.35173889 9 3 C8.625 5.4375 8.625 5.4375 8 8 C7.01 8.495 7.01 8.495 6 9 C5.67 7.68 5.34 6.36 5 5 C3.35 5.33 1.7 5.66 0 6 C-0.33 5.01 -0.66 4.02 -1 3 C-0.34 2.67 0.32 2.34 1 2 C0.67 1.34 0.34 0.68 0 0 Z " fill="#BEA1E2" transform="translate(482,105)"/>
<path d="M0 0 C-0.125 1.875 -0.125 1.875 -1 4 C-2.98636298 4.70626239 -4.98848259 5.36893571 -7 6 C-9.33531458 7.99935694 -9.33531458 7.99935694 -11 10 C-11.66 9.34 -12.32 8.68 -13 8 C-11.71034824 6.62437146 -10.37310707 5.29233607 -9 4 C-8.34 4 -7.68 4 -7 4 C-7 3.01 -7 2.02 -7 1 C-4.53721199 -0.231394 -2.7204945 -0.07159196 0 0 Z " fill="#A27FCE" transform="translate(385,102)"/>
<path d="M0 0 C2.31 0 4.62 0 7 0 C6.04737966 1.48285242 5.08771595 2.96118201 4.125 4.4375 C3.59132813 5.26121094 3.05765625 6.08492188 2.5078125 6.93359375 C1 9 1 9 -1 10 C-0.67 8.68 -0.34 7.36 0 6 C-0.66 6 -1.32 6 -2 6 C-1.34 4.02 -0.68 2.04 0 0 Z " fill="#6A4298" transform="translate(334,421)"/>
<path d="M0 0 C4.06401493 -0.31261653 6.02985805 0.26729514 9.25 2.75 C9.93578125 3.26046875 10.6215625 3.7709375 11.328125 4.296875 C13.19216561 6.19575749 13.6160049 7.40238609 14 10 C14.66 10 15.32 10 16 10 C15.67 10.66 15.34 11.32 15 12 C12.49618432 10.19272453 9.99761453 8.37833327 7.5 6.5625 C6.78457031 6.04623047 6.06914062 5.52996094 5.33203125 4.99804688 C4.65527344 4.50498047 3.97851562 4.01191406 3.28125 3.50390625 C2.65283203 3.04830322 2.02441406 2.5927002 1.37695312 2.12329102 C0.92255859 1.75260498 0.46816406 1.38191895 0 1 C0 0.67 0 0.34 0 0 Z " fill="#1C0B2F" transform="translate(487,271)"/>
<path d="M0 0 C0.61328125 1.80859375 0.61328125 1.80859375 1 4 C-0.8125 7.0625 -0.8125 7.0625 -3 10 C-3.99 11.485 -3.99 11.485 -5 13 C-4.34 13.66 -3.68 14.32 -3 15 C-6.75 16.125 -6.75 16.125 -9 15 C-7.61219205 11.10993227 -5.7847773 8.03441292 -3.375 4.6875 C-2.74335938 3.80449219 -2.11171875 2.92148437 -1.4609375 2.01171875 C-0.97882813 1.34785156 -0.49671875 0.68398438 0 0 Z " fill="#6A469C" transform="translate(455,291)"/>
<path d="M0 0 C2.475 0.99 2.475 0.99 5 2 C4.67 2.66 4.34 3.32 4 4 C3.38125 4.103125 2.7625 4.20625 2.125 4.3125 C-0.92601339 5.29959257 -1.4721884 7.29160671 -3 10 C-3.66 10 -4.32 10 -5 10 C-5.33 11.32 -5.66 12.64 -6 14 C-6.48792229 10.74718472 -6.40014561 8.65286916 -4.6640625 5.8203125 C-3.15782398 3.8332091 -1.61782175 1.8970886 0 0 Z " fill="#7A50B5" transform="translate(474,266)"/>
<path d="M0 0 C1.65 0 3.3 0 5 0 C5 0.66 5 1.32 5 2 C5.94875 2.103125 6.8975 2.20625 7.875 2.3125 C11 3 11 3 13 6 C15.56282742 6.72965366 15.56282742 6.72965366 18 7 C18 7.99 18 8.98 18 10 C13.48548686 8.6510689 9.67722719 6.83381706 5.625 4.4375 C4.56539063 3.81746094 3.50578125 3.19742188 2.4140625 2.55859375 C1.61742187 2.04425781 0.82078125 1.52992188 0 1 C0 0.67 0 0.34 0 0 Z " fill="#190929" transform="translate(414,229)"/>
<path d="M0 0 C0.66 0.33 1.32 0.66 2 1 C1.98839844 1.85464844 1.97679687 2.70929688 1.96484375 3.58984375 C1.95582031 4.69457031 1.94679688 5.79929688 1.9375 6.9375 C1.92589844 8.03964844 1.91429687 9.14179688 1.90234375 10.27734375 C1.68737429 12.91447634 1.68737429 12.91447634 3 14 C3.04063832 15.66617115 3.042721 17.33388095 3 19 C2.01 18.67 1.02 18.34 0 18 C-0.19620767 15.93831015 -0.38160753 13.87559002 -0.5625 11.8125 C-0.66691406 10.66394531 -0.77132813 9.51539063 -0.87890625 8.33203125 C-0.98859985 5.31368801 -0.74002389 2.91076064 0 0 Z " fill="#7846B1" transform="translate(330,185)"/>
<path d="M0 0 C-0.66 8.91 -1.32 17.82 -2 27 C-2.33 27 -2.66 27 -3 27 C-3 18.42 -3 9.84 -3 1 C-1 0 -1 0 0 0 Z " fill="#140329" transform="translate(330,165)"/>
<path d="M0 0 C0.33 0 0.66 0 1 0 C1.08720919 3.58317958 1.14046112 7.16608567 1.1875 10.75 C1.22520508 12.27367187 1.22520508 12.27367187 1.26367188 13.828125 C1.27333984 14.8078125 1.28300781 15.7875 1.29296875 16.796875 C1.3086792 17.69760742 1.32438965 18.59833984 1.34057617 19.52636719 C0.93761772 22.45308763 -0.0655403 23.81341349 -2 26 C-2.10867392 20.0772713 -1.70834336 14.37733546 -1 8.5 C-0.90460937 7.67757813 -0.80921875 6.85515625 -0.7109375 6.0078125 C-0.47802113 4.00473174 -0.23959066 2.00229341 0 0 Z " fill="#150531" transform="translate(534,344)"/>
<path d="M0 0 C0.99 0.33 1.98 0.66 3 1 C0.08785803 6.3762621 -3.24351901 11.17918273 -7 16 C-7.99 15.01 -8.98 14.02 -10 13 C-9.34 13 -8.68 13 -8 13 C-8 12.34 -8 11.68 -8 11 C-7.01 11 -6.02 11 -5 11 C-4.731875 10.29875 -4.46375 9.5975 -4.1875 8.875 C-2.9318551 5.8350176 -1.49764877 2.9272226 0 0 Z " fill="#150727" transform="translate(467,270)"/>
<path d="M0 0 C1.65 0 3.3 0 5 0 C5.309375 0.9590625 5.309375 0.9590625 5.625 1.9375 C6.07875 2.618125 6.5325 3.29875 7 4 C7.99 4.144375 8.98 4.28875 10 4.4375 C10.99 4.623125 11.98 4.80875 13 5 C14.375 7.5625 14.375 7.5625 15 10 C11.13518578 8.61423779 8.03192572 6.81080359 4.6875 4.4375 C3.80449219 3.81746094 2.92148437 3.19742187 2.01171875 2.55859375 C1.34785156 2.04425781 0.68398438 1.52992188 0 1 C0 0.67 0 0.34 0 0 Z " fill="#6E4AA0" transform="translate(372,260)"/>
<path d="M0 0 C5.26964527 2.63482263 8.97903554 6.79943911 13 11 C12.34 12.32 11.68 13.64 11 15 C10.34 14.01 9.68 13.02 9 12 C8.175 11.195625 7.35 10.39125 6.5 9.5625 C4.315538 7.32342645 3.28247763 5.7622595 2 3 C1.34 2.67 0.68 2.34 0 2 C0 1.34 0 0.68 0 0 Z " fill="#A68AC6" transform="translate(520,130)"/>
<path d="M0 0 C-0.32094577 2.99549387 -0.9549481 3.95752249 -3.1875 6.0625 C-6.04928224 8.03394999 -8.79762437 9.64788584 -12 11 C-12.66 10.67 -13.32 10.34 -14 10 C-12.04653795 8.32731078 -10.08770186 6.66178419 -8.125 5 C-7.56941406 4.52304687 -7.01382812 4.04609375 -6.44140625 3.5546875 C-2.2265625 0 -2.2265625 0 0 0 Z " fill="#19072E" transform="translate(441,279)"/>
<path d="M0 0 C3.63 0 7.26 0 11 0 C9.58001139 3.54997152 8.3878411 6.18729934 6.375 9.3125 C5.92898438 10.00988281 5.48296875 10.70726562 5.0234375 11.42578125 C4.51683594 12.20501953 4.51683594 12.20501953 4 13 C3.67 12.01 3.34 11.02 3 10 C4.28511874 7.96868328 5.61876037 5.96722008 7 4 C7 3.34 7 2.68 7 2 C4.69 1.67 2.38 1.34 0 1 C0 0.67 0 0.34 0 0 Z " fill="#140723" transform="translate(323,421)"/>
<path d="M0 0 C0.99 0.33 1.98 0.66 3 1 C2.3503125 1.83144531 2.3503125 1.83144531 1.6875 2.6796875 C1.130625 3.40414063 0.57375 4.12859375 0 4.875 C-0.556875 5.59429687 -1.11375 6.31359375 -1.6875 7.0546875 C-3.18643377 8.8852085 -3.18643377 8.8852085 -3 11 C-1.0399719 12.63676257 -1.0399719 12.63676257 1 14 C-1.97 13.505 -1.97 13.505 -5 13 C-5.64165788 7.73840541 -4.20577001 5.31407151 -1.09375 1.3203125 C-0.55234375 0.66675781 -0.55234375 0.66675781 0 0 Z " fill="#110428" transform="translate(372,416)"/>
<path d="M0 0 C-1.78673205 1.5058745 -3.57953508 3.0045485 -5.375 4.5 C-6.87160156 5.75296875 -6.87160156 5.75296875 -8.3984375 7.03125 C-11 9 -11 9 -13 9 C-11.64844718 4.57673622 -9.80109562 2.59587018 -6 0 C-3 -1 -3 -1 0 0 Z " fill="#6C43A7" transform="translate(437,282)"/>
<path d="M0 0 C4.03520597 1.58962659 8.01811282 3.28232318 12 5 C8.64574534 6.11808489 6.41010364 5.78694699 3 5 C2.01 5 1.02 5 0 5 C-0.99 4.67 -1.98 4.34 -3 4 C-2.01 2.68 -1.02 1.36 0 0 Z " fill="#5B3B91" transform="translate(375,416)"/>
<path d="M0 0 C0.33 0.66 0.66 1.32 1 2 C0.01 3.485 0.01 3.485 -1 5 C-1.66 5 -2.32 5 -3 5 C-3 5.66 -3 6.32 -3 7 C-7.95 8.485 -7.95 8.485 -13 10 C-9.09868453 5.95419137 -5.1816412 2.30295165 0 0 Z " fill="#190631" transform="translate(426,290)"/>
<path d="M0 0 C1.32 0.33 2.64 0.66 4 1 C4 1.66 4 2.32 4 3 C4.99 3 5.98 3 7 3 C9.25 5.75 9.25 5.75 11 9 C10.609375 11.203125 10.609375 11.203125 10 13 C8.51851668 11.21024844 7.03988094 9.41813943 5.5625 7.625 C4.73878906 6.62726563 3.91507813 5.62953125 3.06640625 4.6015625 C1 2 1 2 0 0 Z " fill="#190730" transform="translate(509,289)"/>
<path d="M0 0 C5.10170244 -0.61838818 7.90850818 1.16742874 12 4 C12.9375 6.25 12.9375 6.25 13 8 C7.73691968 6.58795406 4.2437012 4.31008693 0 1 C0 0.67 0 0.34 0 0 Z " fill="#7048A8" transform="translate(387,270)"/>
<path d="M0 0 C2.46381677 2.46381677 3.26293791 4.77243087 4.5625 8 C6.17663682 12.04728325 6.17663682 12.04728325 8 16 C5 15 5 15 3 13 C2.34 12.67 1.68 12.34 1 12 C0.5859375 9.27734375 0.5859375 9.27734375 0.375 5.9375 C0.30023438 4.83277344 0.22546875 3.72804687 0.1484375 2.58984375 C0.09945313 1.73519531 0.05046875 0.88054687 0 0 Z " fill="#7B54AB" transform="translate(362,178)"/>
<path d="M0 0 C0.66 0.33 1.32 0.66 2 1 C-4.20440882 7.37675351 -4.20440882 7.37675351 -7 9 C-9.25 8.6875 -9.25 8.6875 -11 8 C-4.06451613 2.03225806 -4.06451613 2.03225806 0 0 Z " fill="#1F0F30" transform="translate(390,111)"/>
<path d="M0 0 C1.41791408 0.45445964 2.83428046 0.91374944 4.25 1.375 C5.43335938 1.75785156 5.43335938 1.75785156 6.640625 2.1484375 C8.86627958 2.95173667 10.90931672 3.89711662 13 5 C8.6835078 5.76173392 5.25566547 6.16063604 1 5 C0.67 3.35 0.34 1.7 0 0 Z " fill="#180A2F" transform="translate(377,431)"/>
<path d="M0 0 C0.33 0.66 0.66 1.32 1 2 C-0.78150459 6.65170644 -2.51851506 8.81981814 -7 11 C-7.66 10.34 -8.32 9.68 -9 9 C-6.03 6.03 -3.06 3.06 0 0 Z " fill="#CDCDD0" transform="translate(349,383)"/>
<path d="M0 0 C4.27186525 1.52853935 7.99326863 3.71509481 11.8125 6.125 C12.40998047 6.49753906 13.00746094 6.87007813 13.62304688 7.25390625 C15.08426251 8.1657048 16.54244585 9.08235976 18 10 C16.3125 10.70703125 16.3125 10.70703125 14 11 C11.5625 9.63671875 11.5625 9.63671875 9 7.6875 C6.0751023 5.48936804 3.33501087 3.52082672 0 2 C0 1.34 0 0.68 0 0 Z " fill="#8661B7" transform="translate(475,265)"/>
<path d="M0 0 C0 0.66 0 1.32 0 2 C-0.61875 2.0825 -1.2375 2.165 -1.875 2.25 C-2.57625 2.4975 -3.2775 2.745 -4 3 C-4.433125 3.9590625 -4.433125 3.9590625 -4.875 4.9375 C-6 7 -6 7 -9 8.3125 C-12 9 -12 9 -14 8 C-12.04532248 6.66101601 -10.0866421 5.32870953 -8.125 4 C-7.03445313 3.2575 -5.94390625 2.515 -4.8203125 1.75 C-2 0 -2 0 0 0 Z " fill="#9878BD" transform="translate(378,104)"/>
<path d="M0 0 C4.26322371 -0.36541918 6.54179464 0.50240724 10 3 C10.33 3.66 10.66 4.32 11 5 C11.66 5 12.32 5 13 5 C13.33 5.99 13.66 6.98 14 8 C9.02790438 6.23570801 4.56561939 3.6060834 0 1 C0 0.67 0 0.34 0 0 Z " fill="#1A0C2F" transform="translate(432,239)"/>
<path d="M0 0 C2 2 2 2 2.25 4.75 C1.98998031 8.13025595 1.20288037 10.84243904 0 14 C-2 12 -2 12 -2.25 9.25 C-1.98998031 5.86974405 -1.20288037 3.15756096 0 0 Z " fill="#603A97" transform="translate(530,362)"/>
<path d="M0 0 C-3.11016455 3.28788824 -6.01618925 5.83735988 -10 8 C-9.16513153 2.15592068 -5.85032849 -0.6500365 0 0 Z " fill="#774FAF" transform="translate(453,268)"/>
<path d="M0 0 C0.53625 0.680625 1.0725 1.36125 1.625 2.0625 C3.94790138 4.93556223 6.36356826 7.69794378 8.828125 10.44921875 C10 12 10 12 10 14 C9.01 14 8.02 14 7 14 C5.15473038 11.37403939 4.01624151 9.04872454 3 6 C2.01 5.67 1.02 5.34 0 5 C0 3.35 0 1.7 0 0 Z " fill="#1B0731" transform="translate(340,228)"/>
<path d="M0 0 C2.5 1.375 2.5 1.375 5 4 C5.44908891 7.37080851 5.29036649 10.61884349 5 14 C2.96470413 11.96470413 2.3615728 10.76582618 1.375 8.125 C1.11460937 7.44695312 0.85421875 6.76890625 0.5859375 6.0703125 C0 4 0 4 0 0 Z " fill="#150627" transform="translate(362,174)"/>
<path d="M0 0 C-0.33 1.65 -0.66 3.3 -1 5 C-3.97 4.505 -3.97 4.505 -7 4 C-6.6875 2.0625 -6.6875 2.0625 -6 0 C-3 -1 -3 -1 0 0 Z " fill="#A172D3" transform="translate(369,113)"/>
<path d="M0 0 C2.64 0.33 5.28 0.66 8 1 C8 1.99 8 2.98 8 4 C8.639375 4.103125 9.27875 4.20625 9.9375 4.3125 C10.618125 4.539375 11.29875 4.76625 12 5 C12.33 5.99 12.66 6.98 13 8 C12.42636719 7.71125 11.85273438 7.4225 11.26171875 7.125 C9.81221882 6.40400522 8.35688641 5.69455087 6.89453125 5 C6.20746094 4.67 5.52039063 4.34 4.8125 4 C4.11769531 3.67 3.42289062 3.34 2.70703125 3 C1 2 1 2 0 0 Z " fill="#B091D0" transform="translate(463,108)"/>
<path d="M0 0 C2.97 0 5.94 0 9 0 C9.33 0.99 9.66 1.98 10 3 C8.02 3 6.04 3 4 3 C3.34 4.32 2.68 5.64 2 7 C1.01 6.34 0.02 5.68 -1 5 C-0.67 3.35 -0.34 1.7 0 0 Z " fill="#B38DE0" transform="translate(456,97)"/>
<path d="M0 0 C0.99 1.32 1.98 2.64 3 4 C2.67 4.66 2.34 5.32 2 6 C1.34 6 0.68 6 0 6 C-0.33 6.99 -0.66 7.98 -1 9 C-1.99 9 -2.98 9 -4 9 C-3.46930939 5.17902761 -2.50298434 2.93828597 0 0 Z " fill="#130621" transform="translate(340,422)"/>
<path d="M0 0 C0.33 0.66 0.66 1.32 1 2 C-0.86304512 6.44906298 -2.88748341 9.4962189 -7.3125 11.5 C-8.199375 11.665 -9.08625 11.83 -10 12 C-9.61328125 11.55269531 -9.2265625 11.10539062 -8.828125 10.64453125 C-5.81609925 7.1478974 -2.85678969 3.62592537 0 0 Z " fill="#15052F" transform="translate(513,405)"/>
<path d="M0 0 C2 2 2 2 2 5 C-3.34883721 10 -3.34883721 10 -6 10 C-4.34832443 6.4213696 -2.21713508 3.25179812 0 0 Z " fill="#2B2A2F" transform="translate(396,345)"/>
<path d="M0 0 C0 3 0 3 -1 5 C-0.01 4.67 0.98 4.34 2 4 C2.6875 5.8125 2.6875 5.8125 3 8 C1.5625 9.75 1.5625 9.75 0 11 C0 10.01 0 9.02 0 8 C-0.66 8 -1.32 8 -2 8 C-2 7.34 -2 6.68 -2 6 C-2.66 5.67 -3.32 5.34 -4 5 C-2.68 3.35 -1.36 1.7 0 0 Z " fill="#D1D1D1" transform="translate(400,329)"/>
<path d="M0 0 C1.258125 0.12375 2.51625 0.2475 3.8125 0.375 C4.87404297 0.47941406 4.87404297 0.47941406 5.95703125 0.5859375 C8 1 8 1 11 3 C11.6875 5.125 11.6875 5.125 12 7 C7.69235185 5.43358249 3.93828536 3.31663844 0 1 C0 0.67 0 0.34 0 0 Z " fill="#1E0D30" transform="translate(475,264)"/>
<path d="M0 0 C2.96404505 2.80804268 5.44499019 5.18315774 7 9 C4.625 8.6875 4.625 8.6875 2 8 C-0.1519437 4.77208445 -0.20086443 3.71599191 0 0 Z " fill="#231533" transform="translate(498,135)"/>
<path d="M0 0 C6.14830711 1.20555041 8.35248219 2.91558124 12 8 C11.34 8.66 10.68 9.32 10 10 C6.66666667 6.66666667 3.33333333 3.33333333 0 0 Z " fill="#A88CCB" transform="translate(485,122)"/>
<path d="M0 0 C1.98 0 3.96 0 6 0 C6.33 0.99 6.66 1.98 7 3 C8.32 2.67 9.64 2.34 11 2 C11.33 3.32 11.66 4.64 12 6 C10.55903414 5.57405412 9.12231288 5.13373367 7.6875 4.6875 C6.88699219 4.44386719 6.08648437 4.20023437 5.26171875 3.94921875 C2.90035427 2.95817977 1.66120007 1.91925057 0 0 Z " fill="#100327" transform="translate(377,416)"/>
<path d="M0 0 C2 3 2 3 1.609375 4.97265625 C1.32578125 5.66230469 1.0421875 6.35195313 0.75 7.0625 C0.34007812 8.10083984 0.34007812 8.10083984 -0.078125 9.16015625 C-1 11 -1 11 -3 13 C-3.66 12.67 -4.32 12.34 -5 12 C-3.41037341 7.96479403 -1.71767682 3.98188718 0 0 Z " fill="#C5C5C7" transform="translate(211,392)"/>
<path d="M0 0 C0.66 0.33 1.32 0.66 2 1 C-0.31 4.63 -2.62 8.26 -5 12 C-5.66 10.68 -6.32 9.36 -7 8 C-4.69 5.36 -2.38 2.72 0 0 Z " fill="#140626" transform="translate(451,294)"/>
<path d="M0 0 C0.33 0 0.66 0 1 0 C1.06058594 0.845625 1.12117188 1.69125 1.18359375 2.5625 C1.63959033 8.7359922 2.15820112 14.86689384 3 21 C2.67 20.34 2.34 19.68 2 19 C1.34 19 0.68 19 0 19 C0 12.73 0 6.46 0 0 Z " fill="#7C56AB" transform="translate(359,157)"/>
<path d="M0 0 C4.26947129 0.50229074 8.16836808 0.97148898 12 3 C12.33 3.99 12.66 4.98 13 6 C11.35 6.33 9.7 6.66 8 7 C8.33 6.01 8.66 5.02 9 4 C8.443125 3.87625 7.88625 3.7525 7.3125 3.625 C4.77885636 2.94023145 2.42078968 2.00866237 0 1 C0 0.67 0 0.34 0 0 Z " fill="#BDA2DA" transform="translate(464,98)"/>
<path d="M0 0 C0.928125 0.20625 1.85625 0.4125 2.8125 0.625 C1.4375 2.125 1.4375 2.125 -0.1875 3.625 C-0.8475 3.625 -1.5075 3.625 -2.1875 3.625 C-2.5175 4.615 -2.8475 5.605 -3.1875 6.625 C-4.1775 5.965 -5.1675 5.305 -6.1875 4.625 C-6.1875 3.635 -6.1875 2.645 -6.1875 1.625 C-3.1875 -0.375 -3.1875 -0.375 0 0 Z " fill="#A683D0" transform="translate(392.1875,98.375)"/>
<path d="M0 0 C0.33 0.99 0.66 1.98 1 3 C-0.65234375 5.48046875 -0.65234375 5.48046875 -2.9375 8.1875 C-3.68902344 9.08855469 -4.44054687 9.98960937 -5.21484375 10.91796875 C-5.80394531 11.60503906 -6.39304687 12.29210937 -7 13 C-7 9.89195492 -6.544045 8.6556707 -5.1875 5.9375 C-4.85105469 5.24527344 -4.51460938 4.55304688 -4.16796875 3.83984375 C-3 2 -3 2 0 0 Z " fill="#5C3E80" transform="translate(321,445)"/>
<path d="M0 0 C0.99 0.33 1.98 0.66 3 1 C3 2.65 3 4.3 3 6 C1.02 6.99 -0.96 7.98 -3 9 C-2.5020163 5.26512223 -2.12508244 3.18762365 0 0 Z " fill="#5B3589" transform="translate(331,426)"/>
<path d="M0 0 C0.33 0.99 0.66 1.98 1 3 C-2.49087093 7.0042343 -4.64951939 8.62671065 -10 9 C-6.83047153 5.73991357 -3.60062011 2.77762123 0 0 Z " fill="#1A0931" transform="translate(462,261)"/>
<path d="M0 0 C9.59453303 0.59453303 9.59453303 0.59453303 13 4 C8.07872966 4.16682272 4.49656104 4.24828052 0 2 C0 1.34 0 0.68 0 0 Z " fill="#261533" transform="translate(447,105)"/>
<path d="M0 0 C0.66 0.33 1.32 0.66 2 1 C0.50164772 5.66154042 -2.88463591 6.86610751 -7 9 C-7 6 -7 6 -5.46875 4.39453125 C-4.49421875 3.61142578 -4.49421875 3.61142578 -3.5 2.8125 C-2.8503125 2.28269531 -2.200625 1.75289063 -1.53125 1.20703125 C-1.0259375 0.80871094 -0.520625 0.41039062 0 0 Z " fill="#150728" transform="translate(449,271)"/>
<path d="M0 0 C1.9375 0.8125 1.9375 0.8125 4 2 C4.33 2.99 4.66 3.98 5 5 C6.49985609 6.66710346 6.49985609 6.66710346 8 8 C7.67 8.66 7.34 9.32 7 10 C5 9 3 8 1 7 C1.020625 6.21625 1.04125 5.4325 1.0625 4.625 C1.18684063 2.01885039 1.18684063 2.01885039 0 0 Z " fill="#AC81DD" transform="translate(520,132)"/>
<path d="M0 0 C3.21043882 1.38188453 5.04936365 2.92421903 7.25 5.625 C8.03117187 6.57246094 8.03117187 6.57246094 8.828125 7.5390625 C9.40820312 8.26222656 9.40820312 8.26222656 10 9 C7.33289346 8.84759391 5.5494129 8.50635081 3.5546875 6.66796875 C0 2.49375 0 2.49375 0 0 Z " fill="#1B0F2B" transform="translate(486,124)"/>
<path d="M0 0 C1.62580966 0.11398665 3.25067157 0.24155659 4.875 0.375 C5.77992188 0.44460937 6.68484375 0.51421875 7.6171875 0.5859375 C10 1 10 1 12 3 C10.824375 2.9690625 10.824375 2.9690625 9.625 2.9375 C7.01885039 2.81315937 7.01885039 2.81315937 5 4 C4.67 4.99 4.34 5.98 4 7 C4 6.01 4 5.02 4 4 C3.34 4 2.68 4 2 4 C2 3.34 2 2.68 2 2 C1.34 1.34 0.68 0.68 0 0 Z " fill="#C7A8EB" transform="translate(451,95)"/>
<path d="M0 0 C0 2.70254461 -0.03430669 4.50529228 -1 7 C-3.0625 8.25 -3.0625 8.25 -5 9 C-5.66 8.34 -6.32 7.68 -7 7 C-4.69 4.69 -2.38 2.38 0 0 Z " fill="#D5D5D6" transform="translate(364,368)"/>
<path d="M0 0 C1 2 1 2 0.25 4.3125 C-1.00173326 7.00372652 -2.42139202 9.48857821 -4 12 C-4.66 11.67 -5.32 11.34 -6 11 C-4.34703566 6.90694544 -2.86453858 3.41016497 0 0 Z " fill="#7A51B1" transform="translate(465,278)"/>
<path d="M0 0 C3.05001831 3.66002197 7 9.07851471 7 14 C4 13 4 13 2.83203125 11.07421875 C2.49558594 10.28660156 2.15914063 9.49898437 1.8125 8.6875 C1.46832031 7.90761719 1.12414062 7.12773437 0.76953125 6.32421875 C0 4 0 4 0 0 Z " fill="#1A0533" transform="translate(331,210)"/>
<path d="M0 0 C0 0.66 0 1.32 0 2 C-0.94875 2.309375 -1.8975 2.61875 -2.875 2.9375 C-5.86080408 3.87394742 -5.86080408 3.87394742 -8 5 C-10.00800456 4.71887936 -12.01014051 4.38932033 -14 4 C-11.8553857 1.8553857 -10.98260002 1.55435397 -8.125 0.875 C-7.44695312 0.70742187 -6.76890625 0.53984375 -6.0703125 0.3671875 C-4 0 -4 0 0 0 Z " fill="#14071F" transform="translate(406,107)"/>
<path d="M0 0 C0.75 1.75 0.75 1.75 1 4 C-0.75 6.25 -0.75 6.25 -3 8 C-3.99 8 -4.98 8 -6 8 C-6.33 8.99 -6.66 9.98 -7 11 C-7.33 10.34 -7.66 9.68 -8 9 C-6.8553125 7.88625 -6.8553125 7.88625 -5.6875 6.75 C-3.5606298 4.5736677 -1.7440044 2.47832204 0 0 Z " fill="#241538" transform="translate(317,453)"/>
<path d="M0 0 C1.77174819 0.08723378 3.54247377 0.19541655 5.3125 0.3125 C6.29863281 0.37050781 7.28476562 0.42851562 8.30078125 0.48828125 C11.24384457 1.04622813 12.18182999 1.68540132 14 4 C9.02906176 3.58846263 4.55491614 3.20399168 0 1 C0 0.67 0 0.34 0 0 Z " fill="#4C2D7F" transform="translate(390,435)"/>
<path d="M0 0 C0.33 0.99 0.66 1.98 1 3 C-0.14453125 5.04296875 -0.14453125 5.04296875 -1.8125 7.1875 C-2.62654297 8.26064453 -2.62654297 8.26064453 -3.45703125 9.35546875 C-3.96621094 9.89816406 -4.47539062 10.44085938 -5 11 C-5.66 11 -6.32 11 -7 11 C-5.22054913 6.95579349 -2.60470327 3.53921513 0 0 Z " fill="#303033" transform="translate(354,402)"/>
<path d="M0 0 C0.99 0 1.98 0 3 0 C3.33 0.99 3.66 1.98 4 3 C2.35 4.32 0.7 5.64 -1 7 C-1.66 6.34 -2.32 5.68 -3 5 C-1.6875 2.5 -1.6875 2.5 0 0 Z " fill="#100E13" transform="translate(381,344)"/>
<path d="M0 0 C1.9375 0.1875 1.9375 0.1875 4 1 C6.11103658 3.95545121 6.19785783 6.43855901 6 10 C5.34 9.67 4.68 9.34 4 9 C4 8.01 4 7.02 4 6 C3.01 5.67 2.02 5.34 1 5 C-0.1875 2.9375 -0.1875 2.9375 -1 1 C-0.67 0.67 -0.34 0.34 0 0 Z " fill="#170927" transform="translate(459,251)"/>
<path d="M0 0 C0.66 0.99 1.32 1.98 2 3 C1.125 6.1875 1.125 6.1875 0 9 C-0.66 9 -1.32 9 -2 9 C-2.33 9.99 -2.66 10.98 -3 12 C-2.14285714 3.42857143 -2.14285714 3.42857143 0 0 Z " fill="#8B5EC1" transform="translate(335,151)"/>
<path d="M0 0 C0 0.66 0 1.32 0 2 C-1.390625 3.32421875 -1.390625 3.32421875 -3.25 4.6875 C-3.85328125 5.14511719 -4.4565625 5.60273437 -5.078125 6.07421875 C-7 7 -7 7 -9.234375 6.64453125 C-9.81703125 6.43183594 -10.3996875 6.21914062 -11 6 C-9.54550599 4.9944239 -8.08627557 3.99569565 -6.625 3 C-5.40683594 2.1646875 -5.40683594 2.1646875 -4.1640625 1.3125 C-2 0 -2 0 0 0 Z " fill="#262628" transform="translate(276,94)"/>
<path d="M0 0 C1.10673834 0.76713644 2.21027694 1.53889003 3.3125 2.3125 C4.23482422 2.95638672 4.23482422 2.95638672 5.17578125 3.61328125 C6.94645331 4.95929534 8.46738009 6.39192803 10 8 C9.67 8.66 9.34 9.32 9 10 C7 8.625 7 8.625 5 7 C5 6.34 5 5.68 5 5 C3.68 5 2.36 5 1 5 C0.67 3.35 0.34 1.7 0 0 Z " fill="#190835" transform="translate(475,325)"/>
<path d="M0 0 C2.97 0 5.94 0 9 0 C8.34 1.32 7.68 2.64 7 4 C5 3 3 2 1 1 C1 1.66 1 2.32 1 3 C0.01 3.33 -0.98 3.66 -2 4 C-1.34 2.68 -0.68 1.36 0 0 Z " fill="#C4C4C6" transform="translate(409,315)"/>
<path d="M0 0 C3.36179774 1.44077046 5.59156268 3.24750021 8 6 C8 6.66 8 7.32 8 8 C6.35 7.67 4.7 7.34 3 7 C2.67 5.35 2.34 3.7 2 2 C1.34 2 0.68 2 0 2 C0 1.34 0 0.68 0 0 Z " fill="#1C0934" transform="translate(392,275)"/>
<path d="M0 0 C-1.24976756 3.65316671 -1.67098753 4.78065836 -5 7 C-5.99 6.67 -6.98 6.34 -8 6 C-3.38461538 0 -3.38461538 0 0 0 Z " fill="#12071F" transform="translate(524,158)"/>
<path d="M0 0 C1.65 1.65 3.3 3.3 5 5 C4.34 6.32 3.68 7.64 3 9 C2.34 8.67 1.68 8.34 1 8 C0.26924352 5.6859378 -0.40138258 3.35171131 -1 1 C-0.67 0.67 -0.34 0.34 0 0 Z " fill="#9C7EC4" transform="translate(514,155)"/>
<path d="M0 0 C1.65 0 3.3 0 5 0 C2.19195732 2.96404505 -0.18315774 5.44499019 -4 7 C-4 5.68 -4 4.36 -4 3 C-3.01 3 -2.02 3 -1 3 C-0.67 2.01 -0.34 1.02 0 0 Z " fill="#1A0D2B" transform="translate(362,110)"/>
<path d="M0 0 C2.97 0.495 2.97 0.495 6 1 C2.79663178 3.83374881 0.21912747 4.5205537 -4 5 C-2.68 3.35 -1.36 1.7 0 0 Z " fill="#6238A3" transform="translate(484,424)"/>
<path d="M0 0 C-1.36983503 3.16115776 -1.9890638 3.9927092 -5 6 C-5.66 5.67 -6.32 5.34 -7 5 C-5.22678182 1.07358831 -4.52021524 0 0 0 Z " fill="#573493" transform="translate(506,412)"/>
<path d="M0 0 C0.66 0 1.32 0 2 0 C1.67 1.98 1.34 3.96 1 6 C0.34 6 -0.32 6 -1 6 C-1.66 7.32 -2.32 8.64 -3 10 C-2.69201674 8.51988629 -2.378482 7.04092675 -2.0625 5.5625 C-1.88847656 4.73878906 -1.71445312 3.91507812 -1.53515625 3.06640625 C-1 1 -1 1 0 0 Z " fill="#16052C" transform="translate(492,392)"/>
<path d="M0 0 C2.35729943 2.19138979 4.02057098 4.43931973 5.6875 7.1875 C6.12449219 7.90292969 6.56148438 8.61835938 7.01171875 9.35546875 C7.33785156 9.89816406 7.66398437 10.44085938 8 11 C5.6875 10.5625 5.6875 10.5625 3 9 C1.63924116 6.09244107 0.78637041 3.10712212 0 0 Z " fill="#1D0B34" transform="translate(405,290)"/>
<path d="M0 0 C0.66 0 1.32 0 2 0 C1.38461538 6.52307692 1.38461538 6.52307692 -0.5625 8.9375 C-1.036875 9.288125 -1.51125 9.63875 -2 10 C-2.6875 8.1875 -2.6875 8.1875 -3 6 C-1.5625 4.4375 -1.5625 4.4375 0 3 C0 2.01 0 1.02 0 0 Z " fill="#1D0E2A" transform="translate(532,140)"/>
<path d="M0 0 C0.66 0 1.32 0 2 0 C2 0.66 2 1.32 2 2 C2.66 2 3.32 2 4 2 C4.33 4.31 4.66 6.62 5 9 C2.33264727 6.51047079 0.44253657 4.36591866 -1 1 C-0.67 0.67 -0.34 0.34 0 0 Z " fill="#AA89D0" transform="translate(501,135)"/>
<path d="M0 0 C3.37503669 1.1858237 5.64722731 2.27573689 8 5 C5 6 5 6 2.875 5.3125 C1 4 1 4 0.25 1.875 C0.1675 1.25625 0.085 0.6375 0 0 Z " fill="#131214" transform="translate(193,95)"/>
<path d="M0 0 C4.62 0 9.24 0 14 0 C14 0.33 14 0.66 14 1 C12.02 1 10.04 1 8 1 C8 1.66 8 2.32 8 3 C2.25 2.25 2.25 2.25 0 0 Z " fill="#F8F8F8" transform="translate(181,89)"/>
<path d="M0 0 C0.66 0.33 1.32 0.66 2 1 C0.02 3.97 0.02 3.97 -2 7 C-2.33 6.01 -2.66 5.02 -3 4 C-3.99 4.33 -4.98 4.66 -6 5 C-5.34 3.68 -4.68 2.36 -4 1 C-3.01 1 -2.02 1 -1 1 C-0.67 0.67 -0.34 0.34 0 0 Z " fill="#4D2E73" transform="translate(331,432)"/>
<path d="M0 0 C2.31 0.66 4.62 1.32 7 2 C7.33 3.65 7.66 5.3 8 7 C3.8575633 5.61918777 2.67796901 3.40174442 0 0 Z " fill="#6B479F" transform="translate(477,326)"/>
<path d="M0 0 C4.28477792 2.30718811 7.72291137 4.32966073 11 8 C6.51400257 6.74809374 3.40652872 5.20614467 0 2 C0 1.34 0 0.68 0 0 Z " fill="#190634" transform="translate(459,313)"/>
<path d="M0 0 C0.99 0.33 1.98 0.66 3 1 C2.608125 1.53625 2.21625 2.0725 1.8125 2.625 C0.64661496 5.17119399 0.64661496 5.17119399 2.375 8.25 C2.91125 9.1575 3.4475 10.065 4 11 C0.125 9.25 0.125 9.25 -1 7 C-1.125 3.9375 -1.125 3.9375 -1 1 C-0.67 0.67 -0.34 0.34 0 0 Z " fill="#6B3FA9" transform="translate(405,281)"/>
<path d="M0 0 C0.66 0.33 1.32 0.66 2 1 C1.65120368 4.25543229 0.97866739 5.01873107 -1.5625 7.25 C-2.7690625 8.11625 -2.7690625 8.11625 -4 9 C-4 6 -4 6 -2 3.9375 C-1.34 3.298125 -0.68 2.65875 0 2 C0 1.34 0 0.68 0 0 Z " fill="#734B9D" transform="translate(462,256)"/>
<path d="M0 0 C3.96 1.98 7.92 3.96 12 6 C8 7 8 7 5.859375 6.07421875 C5.16328125 5.61660156 4.4671875 5.15898437 3.75 4.6875 C3.04359375 4.23761719 2.3371875 3.78773438 1.609375 3.32421875 C1.07828125 2.88722656 0.5471875 2.45023438 0 2 C0 1.34 0 0.68 0 0 Z " fill="#805AB0" transform="translate(422,234)"/>
<path d="M0 0 C3.63 1.98 7.26 3.96 11 6 C10.01 6.66 9.02 7.32 8 8 C6.66102417 7.04956626 5.32894573 6.08940853 4 5.125 C3.2575 4.59132812 2.515 4.05765625 1.75 3.5078125 C1.1725 3.01023438 0.595 2.51265625 0 2 C0 1.34 0 0.68 0 0 Z " fill="#7F5BAF" transform="translate(395,218)"/>
<path d="M0 0 C0.66 0.33 1.32 0.66 2 1 C2.25 7.625 2.25 7.625 0 11 C-0.19406478 9.35492782 -0.38007935 7.70890406 -0.5625 6.0625 C-0.66691406 5.14597656 -0.77132813 4.22945312 -0.87890625 3.28515625 C-0.91886719 2.53105469 -0.95882813 1.77695313 -1 1 C-0.67 0.67 -0.34 0.34 0 0 Z " fill="#7A4BB4" transform="translate(331,164)"/>
<path d="M0 0 C0 0.66 0 1.32 0 2 C-3.63 1.01 -7.26 0.02 -11 -1 C-11 -1.33 -11 -1.66 -11 -2 C-6.20251344 -3.16695619 -4.19687163 -2.79791442 0 0 Z " fill="#2A1D37" transform="translate(476,99)"/>
<path d="M0 0 C3.74787912 0.50452219 7.32636934 1.08159233 11 2 C7.04 2.99 3.08 3.98 -1 5 C-0.67 3.35 -0.34 1.7 0 0 Z " fill="#C7C7C8" transform="translate(277,89)"/>
<path d="M0 0 C0.99 0.33 1.98 0.66 3 1 C3 1.66 3 2.32 3 3 C1.03533587 4.06775224 -0.96855359 5.06553465 -3 6 C-3.66 5.67 -4.32 5.34 -5 5 C-4.67 4.34 -4.34 3.68 -4 3 C-3.01 3 -2.02 3 -1 3 C-0.67 2.01 -0.34 1.02 0 0 Z " fill="#080314" transform="translate(315,458)"/>
<path d="M0 0 C0.185625 0.9590625 0.185625 0.9590625 0.375 1.9375 C0.684375 2.9584375 0.684375 2.9584375 1 4 C1.66 4.33 2.32 4.66 3 5 C1.35 5.66 -0.3 6.32 -2 7 C-2 3 -2 3 0 0 Z " fill="#513287" transform="translate(371,421)"/>
<path d="M0 0 C1.32 0 2.64 0 4 0 C4.33 3.3 4.66 6.6 5 10 C2.90217213 7.90217213 2.3490604 6.6200793 1.375 3.875 C1.11460937 3.15054687 0.85421875 2.42609375 0.5859375 1.6796875 C0.39257812 1.12539063 0.19921875 0.57109375 0 0 Z " fill="#200C39" transform="translate(525,312)"/>
<path d="M0 0 C0.66 0 1.32 0 2 0 C1.343621 4.48525648 0.29925791 8.66914029 -1 13 C-1.33 13 -1.66 13 -2 13 C-2.16682272 8.07872966 -2.24828052 4.49656104 0 0 Z " fill="#200A3C" transform="translate(332,152)"/>
<path d="M0 0 C1.0625 1.8125 1.0625 1.8125 2 4 C1.67 4.99 1.34 5.98 1 7 C-0.98 5.35 -2.96 3.7 -5 2 C-2 0 -2 0 0 0 Z " fill="#1D122B" transform="translate(518,122)"/>
<path d="M0 0 C2.125 0.375 2.125 0.375 4 1 C2.37660195 2.70884005 0.70680947 4.37446717 -1 6 C-1.66 6 -2.32 6 -3 6 C-2.42655063 3.13275314 -2.1385485 2.1385485 0 0 Z " fill="#9873C1" transform="translate(376,118)"/>
<path d="M0 0 C0.66 0.33 1.32 0.66 2 1 C-1.625 5.875 -1.625 5.875 -5 7 C-5 4 -5 4 -3.625 2.375 C-2 1 -2 1 0 0 Z " fill="#A378D9" transform="translate(378,105)"/>
<path d="M0 0 C-1.36983503 3.16115776 -1.9890638 3.9927092 -5 6 C-5.99 5.34 -6.98 4.68 -8 4 C-2.25 0 -2.25 0 0 0 Z " fill="#5F3D98" transform="translate(468,422)"/>
<path d="M0 0 C-3.465 2.97 -3.465 2.97 -7 6 C-6.67 4.02 -6.34 2.04 -6 0 C-3 -1 -3 -1 0 0 Z " fill="#212025" transform="translate(367,366)"/>
<path d="M0 0 C2.125 0.9375 2.125 0.9375 4 2 C4 2.99 4 3.98 4 5 C2.125 4.6875 2.125 4.6875 0 4 C-0.66 3.01 -1.32 2.02 -2 1 C-1.34 0.67 -0.68 0.34 0 0 Z " fill="#19092D" transform="translate(392,212)"/>
<path d="M0 0 C0.66 0.33 1.32 0.66 2 1 C1.34 3.31 0.68 5.62 0 8 C-0.99 7.34 -1.98 6.68 -3 6 C-2.625 3.5625 -2.625 3.5625 -2 1 C-1.34 0.67 -0.68 0.34 0 0 Z " fill="#AD80E0" transform="translate(519,152)"/>
<path d="M0 0 C1.04449911 3.13349732 0.93423645 3.98968256 0 7 C-0.99 7 -1.98 7 -3 7 C-3 7.99 -3 8.98 -3 10 C-3.66 10 -4.32 10 -5 10 C-3.66511872 6.40608886 -2.03977277 3.24509304 0 0 Z " fill="#1D0B30" transform="translate(371,127)"/>
<path d="M0 0 C0.33 0.66 0.66 1.32 1 2 C2.98 1.67 4.96 1.34 7 1 C4.6870518 3.3129482 3.52095125 3.49580975 0.375 4.125 C-0.44226563 4.29257812 -1.25953125 4.46015625 -2.1015625 4.6328125 C-3.04128906 4.81457031 -3.04128906 4.81457031 -4 5 C-2.68 3.35 -1.36 1.7 0 0 Z " fill="#1F1F21" transform="translate(183,413)"/>
<path d="M0 0 C0.99 0.33 1.98 0.66 3 1 C2.67 1.99 2.34 2.98 2 4 C0.35 4.33 -1.3 4.66 -3 5 C-1.125 1.125 -1.125 1.125 0 0 Z " fill="#6234A7" transform="translate(485,410)"/>
<path d="M0 0 C0.33 0 0.66 0 1 0 C1.25 6.625 1.25 6.625 -1 10 C-1.66 10 -2.32 10 -3 10 C-2.01 6.7 -1.02 3.4 0 0 Z " fill="#190734" transform="translate(531,370)"/>
<path d="M0 0 C3.53586014 3.17320782 5.58578031 5.16743695 6 10 C2.46413986 6.82679218 0.41421969 4.83256305 0 0 Z " fill="#8460B1" transform="translate(517,300)"/>
<path d="M0 0 C2.375 0.25 2.375 0.25 5 1 C6.3125 3.0625 6.3125 3.0625 7 5 C5.02 5 3.04 5 1 5 C0.67 3.35 0.34 1.7 0 0 Z " fill="#8D61CA" transform="translate(432,241)"/>
<path d="M0 0 C1.65 0 3.3 0 5 0 C5 0.66 5 1.32 5 2 C6.32 2.33 7.64 2.66 9 3 C9 3.66 9 4.32 9 5 C5.22454612 3.90931332 2.52956528 3.0916909 0 0 Z " fill="#23103A" transform="translate(414,229)"/>
<path d="M0 0 C4.67692308 1.47692308 4.67692308 1.47692308 6.3125 4.125 C6.539375 4.74375 6.76625 5.3625 7 6 C2.25 4.125 2.25 4.125 0 3 C0 2.01 0 1.02 0 0 Z " fill="#1A0B2D" transform="translate(407,223)"/>
<path d="M0 0 C2.97 0.495 2.97 0.495 6 1 C2.55549263 3.29633824 0.06187717 3.54016485 -4 4 C-3.01 3.67 -2.02 3.34 -1 3 C-0.67 2.01 -0.34 1.02 0 0 Z " fill="#1C0C35" transform="translate(450,425)"/>
<path d="M0 0 C2.31 0 4.62 0 7 0 C7 0.66 7 1.32 7 2 C7.99 2.33 8.98 2.66 10 3 C8 4 8 4 6.0546875 3.44140625 C5.33539063 3.15136719 4.61609375 2.86132812 3.875 2.5625 C3.15054687 2.27503906 2.42609375 1.98757813 1.6796875 1.69140625 C0.84824219 1.34916016 0.84824219 1.34916016 0 1 C0 0.67 0 0.34 0 0 Z " fill="#190A34" transform="translate(389,422)"/>
<path d="M0 0 C0.33 0.66 0.66 1.32 1 2 C-1.05233685 4.2477975 -2.00667261 5.0022242 -5 6 C-5.66 5.34 -6.32 4.68 -7 4 C-4.69 2.68 -2.38 1.36 0 0 Z " fill="#583A8F" transform="translate(475,417)"/>
<path d="M0 0 C0.66 0.33 1.32 0.66 2 1 C-0.475 4.465 -0.475 4.465 -3 8 C-3.33 7.01 -3.66 6.02 -4 5 C-2.0625 2.3125 -2.0625 2.3125 0 0 Z " fill="#12042B" transform="translate(487,402)"/>
<path d="M0 0 C3 1 3 1 4 3 C4.04022391 5.3329866 4.04320247 7.66706666 4 10 C2.26337666 6.77484237 1.1094072 3.48670834 0 0 Z " fill="#64409A" transform="translate(493,346)"/>
<path d="M0 0 C0.66 1.32 1.32 2.64 2 4 C0.68 4.33 -0.64 4.66 -2 5 C-2 5.99 -2 6.98 -2 8 C-2.66 8 -3.32 8 -4 8 C-2.87548273 5.0280615 -1.77706209 2.66559313 0 0 Z " fill="#ABABAD" transform="translate(406,319)"/>
<path d="M0 0 C2.50298434 2.93828597 3.46930939 5.17902761 4 9 C2.68 8.34 1.36 7.68 0 7 C0 4.69 0 2.38 0 0 Z " fill="#221437" transform="translate(512,155)"/>
<path d="M0 0 C0.66 0 1.32 0 2 0 C0.125 3.875 0.125 3.875 -1 5 C-2.66617115 5.04063832 -4.33388095 5.042721 -6 5 C-4.6875 3.5 -4.6875 3.5 -3 2 C-2.01 2 -1.02 2 0 2 C0 1.34 0 0.68 0 0 Z " fill="#A682D3" transform="translate(527,146)"/>
<path d="M0 0 C2.31 0.66 4.62 1.32 7 2 C7.33 3.32 7.66 4.64 8 6 C1.125 2.25 1.125 2.25 0 0 Z " fill="#271A31" transform="translate(501,114)"/>
<path d="M0 0 C1.32 0.99 2.64 1.98 4 3 C2.68 3.99 1.36 4.98 0 6 C-0.66 5.67 -1.32 5.34 -2 5 C-1.34 3.35 -0.68 1.7 0 0 Z " fill="#653BA3" transform="translate(497,415)"/>
<path d="M0 0 C0.66 1.32 1.32 2.64 2 4 C1.34 4.66 0.68 5.32 0 6 C-2.125 5.625 -2.125 5.625 -4 5 C-2.68 3.35 -1.36 1.7 0 0 Z " fill="#130425" transform="translate(518,399)"/>
<path d="M0 0 C0.6875 1.6875 0.6875 1.6875 1 4 C-0.3125 6.75 -0.3125 6.75 -2 9 C-2.66 9 -3.32 9 -4 9 C-2.80100302 5.9168649 -1.52299523 2.93720508 0 0 Z " fill="#170732" transform="translate(523,390)"/>
<path d="M0 0 C0.99 0.33 1.98 0.66 3 1 C3.33 3.31 3.66 5.62 4 8 C3.34 8 2.68 8 2 8 C2 6.35 2 4.7 2 3 C1.34 3 0.68 3 0 3 C0 2.01 0 1.02 0 0 Z " fill="#875DBE" transform="translate(525,316)"/>
<path d="M0 0 C0.66 0.33 1.32 0.66 2 1 C-0.97 3.475 -0.97 3.475 -4 6 C-4.66 5.67 -5.32 5.34 -6 5 C-2.25 1.125 -2.25 1.125 0 0 Z " fill="#0A0115" transform="translate(432,287)"/>
<path d="M0 0 C0.66 0.33 1.32 0.66 2 1 C2 1.66 2 2.32 2 3 C2.99 2.67 3.98 2.34 5 2 C5 2.99 5 3.98 5 5 C3.35 5 1.7 5 0 5 C-0.5625 3.0625 -0.5625 3.0625 -1 1 C-0.67 0.67 -0.34 0.34 0 0 Z " fill="#774CB6" transform="translate(363,249)"/>
<path d="M0 0 C2.475 0.495 2.475 0.495 5 1 C3.68799596 2.35432675 2.35368596 3.68733482 1 5 C0.67 5 0.34 5 0 5 C0 3.35 0 1.7 0 0 Z " fill="#9D6CD6" transform="translate(360,128)"/>
</svg>
